  0
SECTION
  2
HEADER
  9
$INSBASE
 10
0.0000
 20
0.0000
  9
$EXTMIN
 10
-16.569347032746581
 20
-16.569206032746582
  9
$EXTMAX
 10
308.86988703274659
 20
623.95688703274664
  9
$LIMMIN
 10
-16.569347032746581
 20
-16.569206032746582
  9
$LIMMAX
 10
308.86988703274659
 20
623.95688703274664
  9
$TEXTSTYLE
  7
STANDARD
  9
$CLAYER
  8
default
  0
ENDSEC
  0
SECTION
  2
TABLES
  0
TABLE
  2
LTYPE
 70
4948253
  0
LTYPE
  2
CONTINUOUS
 70
    64
  3
Solid line
 72
    65
 73
     0
 40
0.0
  0
ENDTAB
  0
TABLE
  2
LAYER
 70
     5
  0
LAYER
  2
default
 70
    64
 62
     7
  6
CONTINUOUS
  0
LAYER
  2
layer16
 70
    64
 62
     7
  6
CONTINUOUS
  0
LAYER
  2
layer20
 70
    64
 62
     7
  6
CONTINUOUS
  0
LAYER
  2
layer21
 70
    64
 62
     7
  6
CONTINUOUS
  0
LAYER
  2
layer22
 70
    64
 62
     7
  6
CONTINUOUS
  0
LAYER
  2
layer23
 70
    64
 62
     7
  6
CONTINUOUS
  0
LAYER
  2
layer24
 70
    64
 62
     7
  6
CONTINUOUS
  0
LAYER
  2
layer25
 70
    64
 62
     7
  6
CONTINUOUS
  0
LAYER
  2
layer26
 70
    64
 62
     7
  6
CONTINUOUS
  0
LAYER
  2
layer27
 70
    64
 62
     7
  6
CONTINUOUS
  0
LAYER
  2
layer28
 70
    64
 62
     7
  6
CONTINUOUS
  0
LAYER
  2
layer29
 70
    64
 62
     7
  6
CONTINUOUS
  0
LAYER
  2
layer30
 70
    64
 62
     7
  6
CONTINUOUS
  0
LAYER
  2
layer31
 70
    64
 62
     7
  6
CONTINUOUS
  0
LAYER
  2
layer32
 70
    64
 62
     7
  6
CONTINUOUS
  0
LAYER
  2
layer33
 70
    64
 62
     7
  6
CONTINUOUS
  0
LAYER
  2
layer34
 70
    64
 62
     7
  6
CONTINUOUS
  0
LAYER
  2
layer35
 70
    64
 62
     7
  6
CONTINUOUS
  0
LAYER
  2
layer36
 70
    64
 62
     7
  6
CONTINUOUS
  0
LAYER
  2
layer37
 70
    64
 62
     7
  6
CONTINUOUS
  0
LAYER
  2
layer38
 70
    64
 62
     7
  6
CONTINUOUS
  0
LAYER
  2
layer39
 70
    64
 62
     7
  6
CONTINUOUS
  0
LAYER
  2
layer40
 70
    64
 62
     7
  6
CONTINUOUS
  0
LAYER
  2
layer41
 70
    64
 62
     7
  6
CONTINUOUS
  0
LAYER
  2
layer42
 70
    64
 62
     7
  6
CONTINUOUS
  0
LAYER
  2
layer43
 70
    64
 62
     7
  6
CONTINUOUS
  0
LAYER
  2
layer44
 70
    64
 62
     7
  6
CONTINUOUS
  0
LAYER
  2
layer45
 70
    64
 62
     7
  6
CONTINUOUS
  0
LAYER
  2
layer46
 70
    64
 62
     7
  6
CONTINUOUS
  0
LAYER
  2
layer47
 70
    64
 62
     7
  6
CONTINUOUS
  0
LAYER
  2
layer48
 70
    64
 62
     7
  6
CONTINUOUS
  0
LAYER
  2
layer49
 70
    64
 62
     7
  6
CONTINUOUS
  0
LAYER
  2
layer50
 70
    64
 62
     7
  6
CONTINUOUS
  0
LAYER
  2
layer51
 70
    64
 62
     7
  6
CONTINUOUS
  0
LAYER
  2
layer52
 70
    64
 62
     7
  6
CONTINUOUS
  0
LAYER
  2
layer53
 70
    64
 62
     7
  6
CONTINUOUS
  0
LAYER
  2
layer54
 70
    64
 62
     7
  6
CONTINUOUS
  0
LAYER
  2
layer55
 70
    64
 62
     7
  6
CONTINUOUS
  0
LAYER
  2
layer56
 70
    64
 62
     7
  6
CONTINUOUS
  0
LAYER
  2
layer57
 70
    64
 62
     7
  6
CONTINUOUS
  0
LAYER
  2
layer58
 70
    64
 62
     7
  6
CONTINUOUS
  0
LAYER
  2
layer59
 70
    64
 62
     7
  6
CONTINUOUS
  0
LAYER
  2
layer60
 70
    64
 62
     7
  6
CONTINUOUS
  0
LAYER
  2
layer61
 70
    64
 62
     7
  6
CONTINUOUS
  0
LAYER
  2
layer62
 70
    64
 62
     7
  6
CONTINUOUS
  0
LAYER
  2
layer63
 70
    64
 62
     7
  6
CONTINUOUS
  0
LAYER
  2
layer64
 70
    64
 62
     7
  6
CONTINUOUS
  0
LAYER
  2
layer65
 70
    64
 62
     7
  6
CONTINUOUS
  0
LAYER
  2
layer66
 70
    64
 62
     7
  6
CONTINUOUS
  0
LAYER
  2
layer67
 70
    64
 62
     7
  6
CONTINUOUS
  0
LAYER
  2
layer68
 70
    64
 62
     7
  6
CONTINUOUS
  0
LAYER
  2
layer69
 70
    64
 62
     7
  6
CONTINUOUS
  0
LAYER
  2
layer70
 70
    64
 62
     7
  6
CONTINUOUS
  0
LAYER
  2
layer71
 70
    64
 62
     7
  6
CONTINUOUS
  0
LAYER
  2
layer72
 70
    64
 62
     7
  6
CONTINUOUS
  0
LAYER
  2
layer73
 70
    64
 62
     7
  6
CONTINUOUS
  0
LAYER
  2
layer74
 70
    64
 62
     7
  6
CONTINUOUS
  0
LAYER
  2
layer75
 70
    64
 62
     7
  6
CONTINUOUS
  0
LAYER
  2
layer76
 70
    64
 62
     7
  6
CONTINUOUS
  0
LAYER
  2
layer77
 70
    64
 62
     7
  6
CONTINUOUS
  0
LAYER
  2
layer78
 70
    64
 62
     7
  6
CONTINUOUS
  0
LAYER
  2
layer79
 70
    64
 62
     7
  6
CONTINUOUS
  0
LAYER
  2
layer80
 70
    64
 62
     7
  6
CONTINUOUS
  0
LAYER
  2
layer81
 70
    64
 62
     7
  6
CONTINUOUS
  0
LAYER
  2
layer82
 70
    64
 62
     7
  6
CONTINUOUS
  0
LAYER
  2
layer83
 70
    64
 62
     7
  6
CONTINUOUS
  0
LAYER
  2
layer84
 70
    64
 62
     7
  6
CONTINUOUS
  0
LAYER
  2
layer85
 70
    64
 62
     7
  6
CONTINUOUS
  0
LAYER
  2
layer86
 70
    64
 62
     7
  6
CONTINUOUS
  0
LAYER
  2
layer87
 70
    64
 62
     7
  6
CONTINUOUS
  0
LAYER
  2
layer88
 70
    64
 62
     7
  6
CONTINUOUS
  0
LAYER
  2
layer89
 70
    64
 62
     7
  6
CONTINUOUS
  0
LAYER
  2
layer90
 70
    64
 62
     7
  6
CONTINUOUS
  0
LAYER
  2
layer91
 70
    64
 62
     7
  6
CONTINUOUS
  0
LAYER
  2
layer92
 70
    64
 62
     7
  6
CONTINUOUS
  0
LAYER
  2
layer93
 70
    64
 62
     7
  6
CONTINUOUS
  0
LAYER
  2
layer94
 70
    64
 62
     7
  6
CONTINUOUS
  0
LAYER
  2
layer95
 70
    64
 62
     7
  6
CONTINUOUS
  0
LAYER
  2
layer96
 70
    64
 62
     7
  6
CONTINUOUS
  0
LAYER
  2
layer97
 70
    64
 62
     7
  6
CONTINUOUS
  0
LAYER
  2
layer98
 70
    64
 62
     7
  6
CONTINUOUS
  0
LAYER
  2
layer99
 70
    64
 62
     7
  6
CONTINUOUS
  0
LAYER
  2
layer100
 70
    64
 62
     7
  6
CONTINUOUS
  0
LAYER
  2
layer101
 70
    64
 62
     7
  6
CONTINUOUS
  0
LAYER
  2
layer102
 70
    64
 62
     7
  6
CONTINUOUS
  0
LAYER
  2
layer103
 70
    64
 62
     7
  6
CONTINUOUS
  0
LAYER
  2
layer104
 70
    64
 62
     7
  6
CONTINUOUS
  0
LAYER
  2
layer105
 70
    64
 62
     7
  6
CONTINUOUS
  0
LAYER
  2
layer106
 70
    64
 62
     7
  6
CONTINUOUS
  0
LAYER
  2
layer107
 70
    64
 62
     7
  6
CONTINUOUS
  0
LAYER
  2
layer108
 70
    64
 62
     7
  6
CONTINUOUS
  0
LAYER
  2
layer109
 70
    64
 62
     7
  6
CONTINUOUS
  0
LAYER
  2
layer110
 70
    64
 62
     7
  6
CONTINUOUS
  0
LAYER
  2
layer111
 70
    64
 62
     7
  6
CONTINUOUS
  0
LAYER
  2
layer112
 70
    64
 62
     7
  6
CONTINUOUS
  0
LAYER
  2
layer113
 70
    64
 62
     7
  6
CONTINUOUS
  0
LAYER
  2
layer114
 70
    64
 62
     7
  6
CONTINUOUS
  0
LAYER
  2
layer132
 70
    64
 62
     7
  6
CONTINUOUS
  0
LAYER
  2
layer133
 70
    64
 62
     7
  6
CONTINUOUS
  0
LAYER
  2
layer134
 70
    64
 62
     7
  6
CONTINUOUS
  0
LAYER
  2
layer135
 70
    64
 62
     7
  6
CONTINUOUS
  0
LAYER
  2
layer136
 70
    64
 62
     7
  6
CONTINUOUS
  0
LAYER
  2
layer137
 70
    64
 62
     7
  6
CONTINUOUS
  0
LAYER
  2
layer138
 70
    64
 62
     7
  6
CONTINUOUS
  0
LAYER
  2
layer139
 70
    64
 62
     7
  6
CONTINUOUS
  0
LAYER
  2
layer140
 70
    64
 62
     7
  6
CONTINUOUS
  0
LAYER
  2
layer141
 70
    64
 62
     7
  6
CONTINUOUS
  0
LAYER
  2
layer142
 70
    64
 62
     7
  6
CONTINUOUS
  0
LAYER
  2
layer143
 70
    64
 62
     7
  6
CONTINUOUS
  0
LAYER
  2
layer144
 70
    64
 62
     7
  6
CONTINUOUS
  0
LAYER
  2
layer145
 70
    64
 62
     7
  6
CONTINUOUS
  0
LAYER
  2
layer146
 70
    64
 62
     7
  6
CONTINUOUS
  0
LAYER
  2
layer147
 70
    64
 62
     7
  6
CONTINUOUS
  0
LAYER
  2
layer148
 70
    64
 62
     7
  6
CONTINUOUS
  0
LAYER
  2
layer149
 70
    64
 62
     7
  6
CONTINUOUS
  0
LAYER
  2
layer150
 70
    64
 62
     7
  6
CONTINUOUS
  0
LAYER
  2
layer151
 70
    64
 62
     7
  6
CONTINUOUS
  0
LAYER
  2
layer152
 70
    64
 62
     7
  6
CONTINUOUS
  0
LAYER
  2
layer153
 70
    64
 62
     7
  6
CONTINUOUS
  0
LAYER
  2
layer154
 70
    64
 62
     7
  6
CONTINUOUS
  0
LAYER
  2
layer155
 70
    64
 62
     7
  6
CONTINUOUS
  0
LAYER
  2
layer156
 70
    64
 62
     7
  6
CONTINUOUS
  0
LAYER
  2
layer157
 70
    64
 62
     7
  6
CONTINUOUS
  0
LAYER
  2
layer158
 70
    64
 62
     7
  6
CONTINUOUS
  0
LAYER
  2
layer159
 70
    64
 62
     7
  6
CONTINUOUS
  0
LAYER
  2
layer160
 70
    64
 62
     7
  6
CONTINUOUS
  0
LAYER
  2
layer161
 70
    64
 62
     7
  6
CONTINUOUS
  0
LAYER
  2
layer162
 70
    64
 62
     7
  6
CONTINUOUS
  0
LAYER
  2
layer163
 70
    64
 62
     7
  6
CONTINUOUS
  0
LAYER
  2
layer164
 70
    64
 62
     7
  6
CONTINUOUS
  0
LAYER
  2
layer165
 70
    64
 62
     7
  6
CONTINUOUS
  0
LAYER
  2
layer166
 70
    64
 62
     7
  6
CONTINUOUS
  0
LAYER
  2
layer167
 70
    64
 62
     7
  6
CONTINUOUS
  0
LAYER
  2
layer168
 70
    64
 62
     7
  6
CONTINUOUS
  0
LAYER
  2
layer169
 70
    64
 62
     7
  6
CONTINUOUS
  0
LAYER
  2
layer170
 70
    64
 62
     7
  6
CONTINUOUS
  0
LAYER
  2
layer171
 70
    64
 62
     7
  6
CONTINUOUS
  0
LAYER
  2
layer172
 70
    64
 62
     7
  6
CONTINUOUS
  0
LAYER
  2
layer173
 70
    64
 62
     7
  6
CONTINUOUS
  0
LAYER
  2
layer174
 70
    64
 62
     7
  6
CONTINUOUS
  0
LAYER
  2
layer175
 70
    64
 62
     7
  6
CONTINUOUS
  0
LAYER
  2
layer176
 70
    64
 62
     7
  6
CONTINUOUS
  0
LAYER
  2
layer177
 70
    64
 62
     7
  6
CONTINUOUS
  0
LAYER
  2
layer178
 70
    64
 62
     7
  6
CONTINUOUS
  0
LAYER
  2
layer179
 70
    64
 62
     7
  6
CONTINUOUS
  0
LAYER
  2
layer180
 70
    64
 62
     7
  6
CONTINUOUS
  0
LAYER
  2
layer181
 70
    64
 62
     7
  6
CONTINUOUS
  0
LAYER
  2
layer182
 70
    64
 62
     7
  6
CONTINUOUS
  0
LAYER
  2
layer183
 70
    64
 62
     7
  6
CONTINUOUS
  0
LAYER
  2
layer184
 70
    64
 62
     7
  6
CONTINUOUS
  0
LAYER
  2
layer185
 70
    64
 62
     7
  6
CONTINUOUS
  0
LAYER
  2
layer186
 70
    64
 62
     7
  6
CONTINUOUS
  0
LAYER
  2
layer187
 70
    64
 62
     7
  6
CONTINUOUS
  0
LAYER
  2
layer188
 70
    64
 62
     7
  6
CONTINUOUS
  0
LAYER
  2
layer189
 70
    64
 62
     7
  6
CONTINUOUS
  0
LAYER
  2
layer190
 70
    64
 62
     7
  6
CONTINUOUS
  0
LAYER
  2
layer191
 70
    64
 62
     7
  6
CONTINUOUS
  0
LAYER
  2
layer192
 70
    64
 62
     7
  6
CONTINUOUS
  0
LAYER
  2
layer193
 70
    64
 62
     7
  6
CONTINUOUS
  0
LAYER
  2
layer194
 70
    64
 62
     7
  6
CONTINUOUS
  0
LAYER
  2
layer195
 70
    64
 62
     7
  6
CONTINUOUS
  0
LAYER
  2
layer196
 70
    64
 62
     7
  6
CONTINUOUS
  0
LAYER
  2
layer197
 70
    64
 62
     7
  6
CONTINUOUS
  0
LAYER
  2
layer198
 70
    64
 62
     7
  6
CONTINUOUS
  0
LAYER
  2
layer199
 70
    64
 62
     7
  6
CONTINUOUS
  0
LAYER
  2
layer200
 70
    64
 62
     7
  6
CONTINUOUS
  0
LAYER
  2
layer201
 70
    64
 62
     7
  6
CONTINUOUS
  0
LAYER
  2
layer202
 70
    64
 62
     7
  6
CONTINUOUS
  0
LAYER
  2
layer203
 70
    64
 62
     7
  6
CONTINUOUS
  0
LAYER
  2
layer204
 70
    64
 62
     7
  6
CONTINUOUS
  0
LAYER
  2
layer205
 70
    64
 62
     7
  6
CONTINUOUS
  0
LAYER
  2
layer206
 70
    64
 62
     7
  6
CONTINUOUS
  0
LAYER
  2
layer207
 70
    64
 62
     7
  6
CONTINUOUS
  0
LAYER
  2
layer208
 70
    64
 62
     7
  6
CONTINUOUS
  0
LAYER
  2
layer209
 70
    64
 62
     7
  6
CONTINUOUS
  0
LAYER
  2
layer210
 70
    64
 62
     7
  6
CONTINUOUS
  0
LAYER
  2
layer211
 70
    64
 62
     7
  6
CONTINUOUS
  0
LAYER
  2
layer212
 70
    64
 62
     7
  6
CONTINUOUS
  0
LAYER
  2
layer213
 70
    64
 62
     7
  6
CONTINUOUS
  0
LAYER
  2
layer214
 70
    64
 62
     7
  6
CONTINUOUS
  0
LAYER
  2
layer215
 70
    64
 62
     7
  6
CONTINUOUS
  0
LAYER
  2
layer216
 70
    64
 62
     7
  6
CONTINUOUS
  0
LAYER
  2
layer217
 70
    64
 62
     7
  6
CONTINUOUS
  0
LAYER
  2
layer218
 70
    64
 62
     7
  6
CONTINUOUS
  0
LAYER
  2
layer219
 70
    64
 62
     7
  6
CONTINUOUS
  0
LAYER
  2
layer220
 70
    64
 62
     7
  6
CONTINUOUS
  0
LAYER
  2
layer221
 70
    64
 62
     7
  6
CONTINUOUS
  0
LAYER
  2
layer222
 70
    64
 62
     7
  6
CONTINUOUS
  0
LAYER
  2
layer223
 70
    64
 62
     7
  6
CONTINUOUS
  0
LAYER
  2
layer224
 70
    64
 62
     7
  6
CONTINUOUS
  0
LAYER
  2
layer225
 70
    64
 62
     7
  6
CONTINUOUS
  0
LAYER
  2
layer226
 70
    64
 62
     7
  6
CONTINUOUS
  0
LAYER
  2
layer230
 70
    64
 62
     7
  6
CONTINUOUS
  0
LAYER
  2
layer235
 70
    64
 62
     7
  6
CONTINUOUS
  0
LAYER
  2
layer236
 70
    64
 62
     7
  6
CONTINUOUS
  0
LAYER
  2
layer237
 70
    64
 62
     7
  6
CONTINUOUS
  0
LAYER
  2
layer238
 70
    64
 62
     7
  6
CONTINUOUS
  0
LAYER
  2
layer239
 70
    64
 62
     7
  6
CONTINUOUS
  0
LAYER
  2
layer240
 70
    64
 62
     7
  6
CONTINUOUS
  0
LAYER
  2
layer241
 70
    64
 62
     7
  6
CONTINUOUS
  0
LAYER
  2
layer242
 70
    64
 62
     7
  6
CONTINUOUS
  0
LAYER
  2
layer243
 70
    64
 62
     7
  6
CONTINUOUS
  0
LAYER
  2
layer244
 70
    64
 62
     7
  6
CONTINUOUS
  0
LAYER
  2
layer245
 70
    64
 62
     7
  6
CONTINUOUS
  0
LAYER
  2
layer246
 70
    64
 62
     7
  6
CONTINUOUS
  0
LAYER
  2
layer247
 70
    64
 62
     7
  6
CONTINUOUS
  0
LAYER
  2
layer248
 70
    64
 62
     7
  6
CONTINUOUS
  0
LAYER
  2
layer249
 70
    64
 62
     7
  6
CONTINUOUS
  0
LAYER
  2
layer250
 70
    64
 62
     7
  6
CONTINUOUS
  0
LAYER
  2
layer251
 70
    64
 62
     7
  6
CONTINUOUS
  0
LAYER
  2
layer252
 70
    64
 62
     7
  6
CONTINUOUS
  0
LAYER
  2
layer253
 70
    64
 62
     7
  6
CONTINUOUS
  0
LAYER
  2
layer254
 70
    64
 62
     7
  6
CONTINUOUS
  0
LAYER
  2
layer255
 70
    64
 62
     7
  6
CONTINUOUS
  0
LAYER
  2
layer256
 70
    64
 62
     7
  6
CONTINUOUS
  0
LAYER
  2
layer257
 70
    64
 62
     7
  6
CONTINUOUS
  0
LAYER
  2
layer258
 70
    64
 62
     7
  6
CONTINUOUS
  0
LAYER
  2
layer259
 70
    64
 62
     7
  6
CONTINUOUS
  0
LAYER
  2
layer260
 70
    64
 62
     7
  6
CONTINUOUS
  0
LAYER
  2
layer261
 70
    64
 62
     7
  6
CONTINUOUS
  0
LAYER
  2
layer262
 70
    64
 62
     7
  6
CONTINUOUS
  0
LAYER
  2
layer263
 70
    64
 62
     7
  6
CONTINUOUS
  0
LAYER
  2
layer264
 70
    64
 62
     7
  6
CONTINUOUS
  0
LAYER
  2
layer265
 70
    64
 62
     7
  6
CONTINUOUS
  0
LAYER
  2
layer266
 70
    64
 62
     7
  6
CONTINUOUS
  0
LAYER
  2
layer267
 70
    64
 62
     7
  6
CONTINUOUS
  0
LAYER
  2
layer268
 70
    64
 62
     7
  6
CONTINUOUS
  0
LAYER
  2
layer269
 70
    64
 62
     7
  6
CONTINUOUS
  0
LAYER
  2
layer270
 70
    64
 62
     7
  6
CONTINUOUS
  0
LAYER
  2
layer271
 70
    64
 62
     7
  6
CONTINUOUS
  0
LAYER
  2
layer272
 70
    64
 62
     7
  6
CONTINUOUS
  0
LAYER
  2
layer273
 70
    64
 62
     7
  6
CONTINUOUS
  0
LAYER
  2
layer274
 70
    64
 62
     7
  6
CONTINUOUS
  0
LAYER
  2
layer275
 70
    64
 62
     7
  6
CONTINUOUS
  0
LAYER
  2
layer276
 70
    64
 62
     7
  6
CONTINUOUS
  0
LAYER
  2
layer277
 70
    64
 62
     7
  6
CONTINUOUS
  0
LAYER
  2
layer278
 70
    64
 62
     7
  6
CONTINUOUS
  0
LAYER
  2
layer279
 70
    64
 62
     7
  6
CONTINUOUS
  0
LAYER
  2
layer280
 70
    64
 62
     7
  6
CONTINUOUS
  0
LAYER
  2
layer281
 70
    64
 62
     7
  6
CONTINUOUS
  0
LAYER
  2
layer282
 70
    64
 62
     7
  6
CONTINUOUS
  0
LAYER
  2
layer283
 70
    64
 62
     7
  6
CONTINUOUS
  0
LAYER
  2
layer284
 70
    64
 62
     7
  6
CONTINUOUS
  0
LAYER
  2
layer285
 70
    64
 62
     7
  6
CONTINUOUS
  0
LAYER
  2
layer286
 70
    64
 62
     7
  6
CONTINUOUS
  0
LAYER
  2
layer287
 70
    64
 62
     7
  6
CONTINUOUS
  0
LAYER
  2
layer288
 70
    64
 62
     7
  6
CONTINUOUS
  0
LAYER
  2
layer289
 70
    64
 62
     7
  6
CONTINUOUS
  0
LAYER
  2
layer290
 70
    64
 62
     7
  6
CONTINUOUS
  0
LAYER
  2
layer291
 70
    64
 62
     7
  6
CONTINUOUS
  0
LAYER
  2
layer292
 70
    64
 62
     7
  6
CONTINUOUS
  0
LAYER
  2
layer293
 70
    64
 62
     7
  6
CONTINUOUS
  0
LAYER
  2
layer294
 70
    64
 62
     7
  6
CONTINUOUS
  0
LAYER
  2
layer295
 70
    64
 62
     7
  6
CONTINUOUS
  0
LAYER
  2
layer296
 70
    64
 62
     7
  6
CONTINUOUS
  0
LAYER
  2
layer297
 70
    64
 62
     7
  6
CONTINUOUS
  0
LAYER
  2
layer298
 70
    64
 62
     7
  6
CONTINUOUS
  0
ENDTAB
  0
TABLE
  2
STYLE
 70
     1
  0
STYLE
  2
STANDARD
 70
     0
 40
0.0
 41
1.0
 50
0.0
 71
     0
 42
0.2
  3
txt
  4

  0
ENDTAB
  0
TABLE
  2
VIEW
 70
     0
  0
ENDTAB
  0
ENDSEC
  0
SECTION
  2
BLOCKS
  0
ENDSEC
  0
SECTION
  2
ENTITIES
  0
LINE
  8
layer16
 10
0.26458700000000002
 20
607.12300000000005
 30
0.0
 11
0.26458700000000002
 21
465.49599999999998
 31
0.0
  0
LINE
  8
default
 10
292.036
 20
607.12300000000005
 30
0.0
 11
292.036
 21
0.264681
 31
0.0
  0
LINE
  8
default
 10
0.26458700000000002
 20
607.12300000000005
 30
0.0
 11
292.036
 21
607.12300000000005
 31
0.0
  0
LINE
  8
default
 10
0.26458700000000002
 20
0.26500000000000001
 30
0.0
 11
292.036
 21
0.264681
 31
0.0
  0
LINE
  8
layer20
 10
38.507399999999997
 20
168.202
 30
0.0
 11
39.483899999999998
 21
178.24600000000001
 31
0.0
  0
LINE
  8
layer21
 10
39.483899999999998
 20
178.24600000000001
 30
0.0
 11
39.483899999999998
 21
188.261
 31
0.0
  0
LINE
  8
layer22
 10
39.483899999999998
 20
188.261
 30
0.0
 11
33.834499999999998
 21
217.196
 31
0.0
  0
LINE
  8
layer23
 10
33.834499999999998
 20
217.196
 30
0.0
 11
28.630500000000001
 21
228.11500000000001
 31
0.0
  0
LINE
  8
layer24
 10
28.630500000000001
 20
228.11500000000001
 30
0.0
 11
27.866499999999998
 21
246.44900000000001
 31
0.0
  0
LINE
  8
layer25
 10
10.074999999999999
 20
256.464
 30
0.0
 11
10.074999999999999
 21
246.16399999999999
 31
0.0
  0
LINE
  8
layer26
 10
117.85899999999999
 20
151.52699999999999
 30
0.0
 11
94.886600000000001
 21
158.99100000000001
 31
0.0
  0
LINE
  8
layer27
 10
94.886600000000001
 20
158.99100000000001
 30
0.0
 11
48.233400000000003
 21
167.06800000000001
 31
0.0
  0
LINE
  8
layer28
 10
48.233400000000003
 20
167.06800000000001
 30
0.0
 11
40.799700000000001
 21
168.173
 31
0.0
  0
LINE
  8
layer29
 10
100.854
 20
146.56999999999999
 30
0.0
 11
111.077
 21
143.197
 31
0.0
  0
LINE
  8
layer30
 10
95.658699999999996
 20
141.83000000000001
 30
0.0
 11
94.578800000000001
 21
120.94499999999999
 31
0.0
  0
LINE
  8
layer31
 10
86.683999999999997
 20
120.946
 30
0.0
 11
85.357200000000006
 21
146.559
 31
0.0
  0
LINE
  8
layer32
 10
81.184799999999996
 20
151.24199999999999
 30
0.0
 11
69.848600000000005
 21
152.57499999999999
 31
0.0
  0
LINE
  8
layer33
 10
64.664100000000005
 20
147.846
 30
0.0
 11
63.944299999999998
 21
133.96799999999999
 31
0.0
  0
LINE
  8
layer34
 10
56.0383
 20
133.96899999999999
 30
0.0
 11
55.183599999999998
 21
150.547
 31
0.0
  0
LINE
  8
layer35
 10
50.505099999999999
 20
155.28700000000001
 30
0.0
 11
33.174700000000001
 21
156.19900000000001
 31
0.0
  0
LINE
  8
layer36
 10
94.578800000000001
 20
120.94499999999999
 30
0.0
 11
93.7196
 21
119.015
 31
0.0
  0
LINE
  8
layer37
 10
93.7196
 20
119.015
 30
0.0
 11
92.657799999999995
 21
117.803
 31
0.0
  0
LINE
  8
layer38
 10
92.657799999999995
 20
117.803
 30
0.0
 11
91.476399999999998
 21
117.227
 31
0.0
  0
LINE
  8
layer39
 10
91.476399999999998
 20
117.227
 30
0.0
 11
90.258499999999998
 21
117.20399999999999
 31
0.0
  0
LINE
  8
layer40
 10
90.258499999999998
 20
117.20399999999999
 30
0.0
 11
89.087299999999999
 21
117.648
 31
0.0
  0
LINE
  8
layer41
 10
89.087299999999999
 20
117.648
 30
0.0
 11
88.045699999999997
 21
118.476
 31
0.0
  0
LINE
  8
layer42
 10
88.045699999999997
 20
118.476
 30
0.0
 11
87.216899999999995
 21
119.60299999999999
 31
0.0
  0
LINE
  8
layer43
 10
87.216899999999995
 20
119.60299999999999
 30
0.0
 11
86.683999999999997
 21
120.946
 31
0.0
  0
LINE
  8
layer44
 10
100.854
 20
146.56999999999999
 30
0.0
 11
99.263000000000005
 21
146.49199999999999
 31
0.0
  0
LINE
  8
layer45
 10
99.263000000000005
 20
146.49199999999999
 30
0.0
 11
98.032399999999996
 21
146.01400000000001
 31
0.0
  0
LINE
  8
layer46
 10
98.032399999999996
 20
146.01400000000001
 30
0.0
 11
97.116500000000002
 21
145.26300000000001
 31
0.0
  0
LINE
  8
layer47
 10
97.116500000000002
 20
145.26300000000001
 30
0.0
 11
96.469700000000003
 21
144.364
 31
0.0
  0
LINE
  8
layer48
 10
96.469700000000003
 20
144.364
 30
0.0
 11
96.046099999999996
 21
143.44499999999999
 31
0.0
  0
LINE
  8
layer49
 10
96.046099999999996
 20
143.44499999999999
 30
0.0
 11
95.800200000000004
 21
142.63200000000001
 31
0.0
  0
LINE
  8
layer50
 10
95.800200000000004
 20
142.63200000000001
 30
0.0
 11
95.658699999999996
 21
141.83000000000001
 31
0.0
  0
LINE
  8
layer51
 10
85.357200000000006
 20
146.559
 30
0.0
 11
85.053899999999999
 21
147.97900000000001
 31
0.0
  0
LINE
  8
layer52
 10
85.053899999999999
 20
147.97900000000001
 30
0.0
 11
84.523099999999999
 21
149.08199999999999
 31
0.0
  0
LINE
  8
layer53
 10
84.523099999999999
 20
149.08199999999999
 30
0.0
 11
83.847300000000004
 21
149.90600000000001
 31
0.0
  0
LINE
  8
layer54
 10
83.847300000000004
 20
149.90600000000001
 30
0.0
 11
83.109099999999998
 21
150.49199999999999
 31
0.0
  0
LINE
  8
layer55
 10
83.109099999999998
 20
150.49199999999999
 30
0.0
 11
81.775999999999996
 21
151.107
 31
0.0
  0
LINE
  8
layer56
 10
81.775999999999996
 20
151.107
 30
0.0
 11
81.184799999999996
 21
151.24199999999999
 31
0.0
  0
LINE
  8
layer57
 10
40.799700000000001
 20
168.173
 30
0.0
 11
38.507399999999997
 21
168.202
 31
0.0
  0
LINE
  8
layer57
 10
38.507399999999997
 20
168.202
 30
0.0
 11
37.504600000000003
 21
168.22999999999999
 31
0.0
  0
LINE
  8
layer58
 10
37.504600000000003
 20
168.22999999999999
 30
0.0
 11
34.306100000000001
 21
168.22999999999999
 31
0.0
  0
LINE
  8
layer59
 10
117.85899999999999
 20
151.52699999999999
 30
0.0
 11
118.791
 21
151.054
 31
0.0
  0
LINE
  8
layer60
 10
118.791
 20
151.054
 30
0.0
 11
121.01900000000001
 21
149.65700000000001
 31
0.0
  0
LINE
  8
layer61
 10
121.01900000000001
 20
149.65700000000001
 30
0.0
 11
122.352
 21
148.62100000000001
 31
0.0
  0
LINE
  8
layer62
 10
122.352
 20
148.62100000000001
 30
0.0
 11
123.688
 21
147.36600000000001
 31
0.0
  0
LINE
  8
layer63
 10
123.688
 20
147.36600000000001
 30
0.0
 11
124.92100000000001
 21
145.89599999999999
 31
0.0
  0
LINE
  8
layer64
 10
124.92100000000001
 20
145.89599999999999
 30
0.0
 11
125.944
 21
144.21299999999999
 31
0.0
  0
LINE
  8
layer65
 10
125.944
 20
144.21299999999999
 30
0.0
 11
126.69499999999999
 21
142.47800000000001
 31
0.0
  0
LINE
  8
layer66
 10
126.69499999999999
 20
142.47800000000001
 30
0.0
 11
127.20999999999999
 21
140.869
 31
0.0
  0
LINE
  8
layer67
 10
127.20999999999999
 20
140.869
 30
0.0
 11
127.699
 21
138.15899999999999
 31
0.0
  0
LINE
  8
layer68
 10
127.699
 20
138.15899999999999
 30
0.0
 11
127.747
 21
136.34200000000001
 31
0.0
  0
LINE
  8
layer69
 10
127.747
 20
136.34200000000001
 30
0.0
 11
127.688
 21
135.678
 31
0.0
  0
LINE
  8
layer70
 10
111.077
 20
143.197
 30
0.0
 11
112.90600000000001
 21
142.25200000000001
 31
0.0
  0
LINE
  8
layer71
 10
112.90600000000001
 20
142.25200000000001
 30
0.0
 11
114.161
 21
141.37200000000001
 31
0.0
  0
LINE
  8
layer72
 10
114.161
 20
141.37200000000001
 30
0.0
 11
114.952
 21
140.50999999999999
 31
0.0
  0
LINE
  8
layer73
 10
114.952
 20
140.50999999999999
 30
0.0
 11
115.39100000000001
 21
139.614
 31
0.0
  0
LINE
  8
layer74
 10
115.39100000000001
 20
139.614
 30
0.0
 11
115.58799999999999
 21
138.63399999999999
 31
0.0
  0
LINE
  8
layer75
 10
115.58799999999999
 20
138.63399999999999
 30
0.0
 11
115.65600000000001
 21
137.51900000000001
 31
0.0
  0
LINE
  8
layer76
 10
115.65600000000001
 20
137.51900000000001
 30
0.0
 11
115.845
 21
134.68100000000001
 31
0.0
  0
LINE
  8
layer77
 10
127.688
 20
135.678
 30
0.0
 11
127.459
 21
134.81800000000001
 31
0.0
  0
LINE
  8
layer78
 10
127.459
 20
134.81800000000001
 30
0.0
 11
126.625
 21
132.92599999999999
 31
0.0
  0
LINE
  8
layer79
 10
126.625
 20
132.92599999999999
 30
0.0
 11
125.913
 21
131.916
 31
0.0
  0
LINE
  8
layer80
 10
125.913
 20
131.916
 30
0.0
 11
124.967
 21
131.035
 31
0.0
  0
LINE
  8
layer81
 10
124.967
 20
131.035
 30
0.0
 11
123.761
 21
130.411
 31
0.0
  0
LINE
  8
layer82
 10
123.761
 20
130.411
 30
0.0
 11
122.267
 21
130.17500000000001
 31
0.0
  0
LINE
  8
layer83
 10
122.267
 20
130.17500000000001
 30
0.0
 11
120.73
 21
130.36799999999999
 31
0.0
  0
LINE
  8
layer84
 10
120.73
 20
130.36799999999999
 30
0.0
 11
119.411
 21
130.87899999999999
 31
0.0
  0
LINE
  8
layer85
 10
119.411
 20
130.87899999999999
 30
0.0
 11
118.30500000000001
 21
131.601
 31
0.0
  0
LINE
  8
layer86
 10
118.30500000000001
 20
131.601
 30
0.0
 11
117.40900000000001
 21
132.428
 31
0.0
  0
LINE
  8
layer87
 10
117.40900000000001
 20
132.428
 30
0.0
 11
116.23099999999999
 21
133.977
 31
0.0
  0
LINE
  8
layer88
 10
116.23099999999999
 20
133.977
 30
0.0
 11
115.845
 21
134.68100000000001
 31
0.0
  0
LINE
  8
layer89
 10
63.944299999999998
 20
133.96799999999999
 30
0.0
 11
63.879300000000001
 21
133.35400000000001
 31
0.0
  0
LINE
  8
layer90
 10
63.879300000000001
 20
133.35400000000001
 30
0.0
 11
63.440899999999999
 21
132.01300000000001
 31
0.0
  0
LINE
  8
layer91
 10
63.440899999999999
 20
132.01300000000001
 30
0.0
 11
62.967799999999997
 21
131.30600000000001
 31
0.0
  0
LINE
  8
layer92
 10
62.967799999999997
 20
131.30600000000001
 30
0.0
 11
62.264600000000002
 21
130.70099999999999
 31
0.0
  0
LINE
  8
layer93
 10
62.264600000000002
 20
130.70099999999999
 30
0.0
 11
61.285800000000002
 21
130.29300000000001
 31
0.0
  0
LINE
  8
layer94
 10
61.285800000000002
 20
130.29300000000001
 30
0.0
 11
59.985700000000001
 21
130.17500000000001
 31
0.0
  0
LINE
  8
layer95
 10
59.985700000000001
 20
130.17500000000001
 30
0.0
 11
58.557699999999997
 21
130.38800000000001
 31
0.0
  0
LINE
  8
layer96
 10
58.557699999999997
 20
130.38800000000001
 30
0.0
 11
57.5199
 21
130.84200000000001
 31
0.0
  0
LINE
  8
layer97
 10
57.5199
 20
130.84200000000001
 30
0.0
 11
56.810600000000001
 21
131.452
 31
0.0
  0
LINE
  8
layer98
 10
56.810600000000001
 20
131.452
 30
0.0
 11
56.368400000000001
 21
132.13800000000001
 31
0.0
  0
LINE
  8
layer99
 10
56.368400000000001
 20
132.13800000000001
 30
0.0
 11
56.038800000000002
 21
133.40100000000001
 31
0.0
  0
LINE
  8
layer100
 10
56.038800000000002
 20
133.40100000000001
 30
0.0
 11
56.0383
 21
133.96899999999999
 31
0.0
  0
LINE
  8
layer101
 10
69.848600000000005
 20
152.57499999999999
 30
0.0
 11
69.365399999999994
 21
152.57599999999999
 31
0.0
  0
LINE
  8
layer102
 10
69.365399999999994
 20
152.57599999999999
 30
0.0
 11
68.198099999999997
 21
152.43000000000001
 31
0.0
  0
LINE
  8
layer103
 10
68.198099999999997
 20
152.43000000000001
 30
0.0
 11
66.770200000000003
 21
151.91399999999999
 31
0.0
  0
LINE
  8
layer104
 10
66.770200000000003
 20
151.91399999999999
 30
0.0
 11
66.090800000000002
 21
151.44800000000001
 31
0.0
  0
LINE
  8
layer105
 10
66.090800000000002
 20
151.44800000000001
 30
0.0
 11
65.504999999999995
 21
150.804
 31
0.0
  0
LINE
  8
layer106
 10
65.504999999999995
 20
150.804
 30
0.0
 11
64.990200000000002
 21
149.798
 31
0.0
  0
LINE
  8
layer107
 10
64.990200000000002
 20
149.798
 30
0.0
 11
64.743799999999993
 21
148.84100000000001
 31
0.0
  0
LINE
  8
layer108
 10
64.743799999999993
 20
148.84100000000001
 30
0.0
 11
64.664100000000005
 21
147.846
 31
0.0
  0
LINE
  8
layer109
 10
55.183599999999998
 20
150.547
 30
0.0
 11
54.808500000000002
 21
151.887
 31
0.0
  0
LINE
  8
layer110
 10
54.808500000000002
 20
151.887
 30
0.0
 11
54.310000000000002
 21
153.01300000000001
 31
0.0
  0
LINE
  8
layer111
 10
54.310000000000002
 20
153.01300000000001
 30
0.0
 11
53.592199999999998
 21
153.97300000000001
 31
0.0
  0
LINE
  8
layer112
 10
53.592199999999998
 20
153.97300000000001
 30
0.0
 11
52.705800000000004
 21
154.548
 31
0.0
  0
LINE
  8
layer113
 10
52.705800000000004
 20
154.548
 30
0.0
 11
51.689599999999999
 21
154.959
 31
0.0
  0
LINE
  8
layer114
 10
51.689599999999999
 20
154.959
 30
0.0
 11
50.505099999999999
 21
155.28700000000001
 31
0.0
  0
LINE
  8
layer16
 10
0.26458700000000002
 20
114.229
 30
0.0
 11
0.26458700000000002
 21
0.26500000000000001
 31
0.0
  0
LINE
  8
default
 10
0.26458700000000002
 20
114.229
 30
0.0
 11
9.7724700000000002
 21
114.758
 31
0.0
  0
LINE
  8
default
 10
9.7724700000000002
 20
114.758
 30
0.0
 11
12.7395
 21
115.191
 31
0.0
  0
LINE
  8
default
 10
12.7395
 20
115.191
 30
0.0
 11
14.450200000000001
 21
115.71599999999999
 31
0.0
  0
LINE
  8
default
 10
14.450200000000001
 20
115.71599999999999
 30
0.0
 11
15.234500000000001
 21
116.158
 31
0.0
  0
LINE
  8
default
 10
15.234500000000001
 20
116.158
 30
0.0
 11
15.422700000000001
 21
116.34399999999999
 31
0.0
  0
LINE
  8
default
 10
15.422700000000001
 20
116.34399999999999
 30
0.0
 11
16.0291
 21
117.652
 31
0.0
  0
LINE
  8
default
 10
16.0291
 20
117.652
 30
0.0
 11
16.272500000000001
 21
119.136
 31
0.0
  0
LINE
  8
default
 10
16.272500000000001
 20
119.136
 30
0.0
 11
16.0824
 21
120.29000000000001
 31
0.0
  0
LINE
  8
default
 10
16.0824
 20
120.29000000000001
 30
0.0
 11
15.524699999999999
 21
121.17100000000001
 31
0.0
  0
LINE
  8
default
 10
15.524699999999999
 20
121.17100000000001
 30
0.0
 11
14.727600000000001
 21
121.89100000000001
 31
0.0
  0
LINE
  8
default
 10
14.727600000000001
 20
121.89100000000001
 30
0.0
 11
13.818899999999999
 21
122.562
 31
0.0
  0
LINE
  8
default
 10
13.818899999999999
 20
122.562
 30
0.0
 11
12.187200000000001
 21
123.68300000000001
 31
0.0
  0
LINE
  8
default
 10
12.187200000000001
 20
123.68300000000001
 30
0.0
 11
10.527699999999999
 21
124.649
 31
0.0
  0
LINE
  8
default
 10
10.527699999999999
 20
124.649
 30
0.0
 11
9.6433900000000001
 21
125.224
 31
0.0
  0
LINE
  8
default
 10
9.6433900000000001
 20
125.224
 30
0.0
 11
8.9324200000000005
 21
125.901
 31
0.0
  0
LINE
  8
default
 10
8.9324200000000005
 20
125.901
 30
0.0
 11
8.4588800000000006
 21
126.69799999999999
 31
0.0
  0
LINE
  8
default
 10
8.4588800000000006
 20
126.69799999999999
 30
0.0
 11
8.2868300000000001
 21
127.634
 31
0.0
  0
LINE
  8
layer16
 10
0.26460699999999998
 20
231.31800000000001
 30
0.0
 11
0.26458700000000002
 21
227.35400000000001
 31
0.0
  0
LINE
  8
layer132
 10
0.26460699999999998
 20
231.31800000000001
 30
0.0
 11
12.2905
 21
231.31800000000001
 31
0.0
  0
LINE
  8
layer133
 10
23.825600000000001
 20
255.92099999999999
 30
0.0
 11
25.524100000000001
 21
254.006
 31
0.0
  0
LINE
  8
layer134
 10
25.524100000000001
 20
254.006
 30
0.0
 11
26.523199999999999
 21
252.46799999999999
 31
0.0
  0
LINE
  8
layer135
 10
26.523199999999999
 20
252.46799999999999
 30
0.0
 11
27.049299999999999
 21
251.22200000000001
 31
0.0
  0
LINE
  8
layer136
 10
27.049299999999999
 20
251.22200000000001
 30
0.0
 11
27.328900000000001
 21
250.185
 31
0.0
  0
LINE
  8
layer137
 10
27.328900000000001
 20
250.185
 30
0.0
 11
27.7136
 21
247.83699999999999
 31
0.0
  0
LINE
  8
layer138
 10
27.7136
 20
247.83699999999999
 30
0.0
 11
27.866499999999998
 21
246.44900000000001
 31
0.0
  0
LINE
  8
layer139
 10
10.074999999999999
 20
256.464
 30
0.0
 11
10.297599999999999
 21
257.37400000000002
 31
0.0
  0
LINE
  8
layer140
 10
10.297599999999999
 20
257.37400000000002
 30
0.0
 11
10.727399999999999
 21
258.209
 31
0.0
  0
LINE
  8
layer141
 10
10.727399999999999
 20
258.209
 30
0.0
 11
11.504099999999999
 21
259.02800000000002
 31
0.0
  0
LINE
  8
layer142
 10
11.504099999999999
 20
259.02800000000002
 30
0.0
 11
12.0413
 21
259.29599999999999
 31
0.0
  0
LINE
  8
layer143
 10
12.0413
 20
259.29599999999999
 30
0.0
 11
12.8005
 21
259.45400000000001
 31
0.0
  0
LINE
  8
layer144
 10
12.8005
 20
259.45400000000001
 30
0.0
 11
15.0121
 21
259.46100000000001
 31
0.0
  0
LINE
  8
layer145
 10
15.0121
 20
259.46100000000001
 30
0.0
 11
16.6907
 21
259.27999999999997
 31
0.0
  0
LINE
  8
layer146
 10
16.6907
 20
259.27999999999997
 30
0.0
 11
18.879300000000001
 21
258.77800000000002
 31
0.0
  0
LINE
  8
layer147
 10
18.879300000000001
 20
258.77800000000002
 30
0.0
 11
21.337599999999998
 21
257.733
 31
0.0
  0
LINE
  8
layer148
 10
21.337599999999998
 20
257.733
 30
0.0
 11
22.5929
 21
256.93599999999998
 31
0.0
  0
LINE
  8
layer149
 10
22.5929
 20
256.93599999999998
 30
0.0
 11
23.825600000000001
 21
255.92099999999999
 31
0.0
  0
LINE
  8
layer150
 10
10.074999999999999
 20
246.16399999999999
 30
0.0
 11
10.193199999999999
 21
245.255
 31
0.0
  0
LINE
  8
layer151
 10
10.193199999999999
 20
245.255
 30
0.0
 11
10.622299999999999
 21
244.40700000000001
 31
0.0
  0
LINE
  8
layer152
 10
10.622299999999999
 20
244.40700000000001
 30
0.0
 11
11.548299999999999
 21
243.55500000000001
 31
0.0
  0
LINE
  8
layer153
 10
11.548299999999999
 20
243.55500000000001
 30
0.0
 11
14.5847
 21
241.268
 31
0.0
  0
LINE
  8
layer154
 10
14.5847
 20
241.268
 30
0.0
 11
16.3841
 21
239.77199999999999
 31
0.0
  0
LINE
  8
layer155
 10
16.3841
 20
239.77199999999999
 30
0.0
 11
16.881900000000002
 21
238.816
 31
0.0
  0
LINE
  8
layer156
 10
16.881900000000002
 20
238.816
 30
0.0
 11
17.1845
 21
237.72900000000001
 31
0.0
  0
LINE
  8
layer157
 10
17.1845
 20
237.72900000000001
 30
0.0
 11
17.238800000000001
 21
236.33099999999999
 31
0.0
  0
LINE
  8
layer158
 10
17.238800000000001
 20
236.33099999999999
 30
0.0
 11
17.042200000000001
 21
235.03399999999999
 31
0.0
  0
LINE
  8
layer159
 10
17.042200000000001
 20
235.03399999999999
 30
0.0
 11
16.7151
 21
234.08799999999999
 31
0.0
  0
LINE
  8
layer160
 10
16.7151
 20
234.08799999999999
 30
0.0
 11
16.229800000000001
 21
233.322
 31
0.0
  0
LINE
  8
layer161
 10
16.229800000000001
 20
233.322
 30
0.0
 11
15.558400000000001
 21
232.566
 31
0.0
  0
LINE
  8
layer162
 10
15.558400000000001
 20
232.566
 30
0.0
 11
14.542899999999999
 21
231.845
 31
0.0
  0
LINE
  8
layer163
 10
14.542899999999999
 20
231.845
 30
0.0
 11
13.4756
 21
231.47399999999999
 31
0.0
  0
LINE
  8
layer164
 10
13.4756
 20
231.47399999999999
 30
0.0
 11
12.2905
 21
231.31800000000001
 31
0.0
  0
LINE
  8
layer16
 10
0.26458700000000002
 20
227.35400000000001
 30
0.0
 11
0.26461000000000001
 21
224.68799999999999
 31
0.0
  0
LINE
  8
layer165
 10
0.26458700000000002
 20
227.35400000000001
 30
0.0
 11
21.113900000000001
 21
227.35400000000001
 31
0.0
  0
LINE
  8
layer166
 10
21.113900000000001
 20
227.35400000000001
 30
0.0
 11
22.755500000000001
 21
226.90700000000001
 31
0.0
  0
LINE
  8
layer167
 10
22.755500000000001
 20
226.90700000000001
 30
0.0
 11
24.291599999999999
 21
226.167
 31
0.0
  0
LINE
  8
layer168
 10
24.291599999999999
 20
226.167
 30
0.0
 11
25.8461
 21
224.91900000000001
 31
0.0
  0
LINE
  8
layer169
 10
25.8461
 20
224.91900000000001
 30
0.0
 11
27.550799999999999
 21
222.89599999999999
 31
0.0
  0
LINE
  8
layer170
 10
27.550799999999999
 20
222.89599999999999
 30
0.0
 11
29.4175
 21
220.108
 31
0.0
  0
LINE
  8
layer171
 10
29.4175
 20
220.108
 30
0.0
 11
30.247699999999998
 21
218.51599999999999
 31
0.0
  0
LINE
  8
layer172
 10
30.247699999999998
 20
218.51599999999999
 30
0.0
 11
30.921900000000001
 21
216.84200000000001
 31
0.0
  0
LINE
  8
layer173
 10
30.921900000000001
 20
216.84200000000001
 30
0.0
 11
31.374500000000001
 21
215.12100000000001
 31
0.0
  0
LINE
  8
layer174
 10
31.374500000000001
 20
215.12100000000001
 30
0.0
 11
31.539899999999999
 21
213.38900000000001
 31
0.0
  0
LINE
  8
layer175
 10
31.539899999999999
 20
213.38900000000001
 30
0.0
 11
31.724699999999999
 21
208.28999999999999
 31
0.0
  0
LINE
  8
layer176
 10
31.724699999999999
 20
208.28999999999999
 30
0.0
 11
32.210599999999999
 21
201.29300000000001
 31
0.0
  0
LINE
  8
layer177
 10
32.210599999999999
 20
201.29300000000001
 30
0.0
 11
32.895000000000003
 21
194.50200000000001
 31
0.0
  0
LINE
  8
layer178
 10
32.895000000000003
 20
194.50200000000001
 30
0.0
 11
33.279499999999999
 21
191.84
 31
0.0
  0
LINE
  8
layer179
 10
33.279499999999999
 20
191.84
 30
0.0
 11
33.675199999999997
 21
190.018
 31
0.0
  0
LINE
  8
layer180
 10
33.675199999999997
 20
190.018
 30
0.0
 11
34.246899999999997
 21
187.50700000000001
 31
0.0
  0
LINE
  8
layer181
 10
34.246899999999997
 20
187.50700000000001
 30
0.0
 11
34.469900000000003
 21
185.20099999999999
 31
0.0
  0
LINE
  8
layer182
 10
34.469900000000003
 20
185.20099999999999
 30
0.0
 11
34.442300000000003
 21
181.00999999999999
 31
0.0
  0
LINE
  8
layer183
 10
34.442300000000003
 20
181.00999999999999
 30
0.0
 11
34.557499999999997
 21
176.54400000000001
 31
0.0
  0
LINE
  8
layer184
 10
34.557499999999997
 20
176.54400000000001
 30
0.0
 11
34.607999999999997
 21
174.08199999999999
 31
0.0
  0
LINE
  8
layer185
 10
34.607999999999997
 20
174.08199999999999
 30
0.0
 11
34.5321
 21
171.57300000000001
 31
0.0
  0
LINE
  8
layer58
 10
34.306100000000001
 20
168.22999999999999
 30
0.0
 11
31.1081
 21
168.22999999999999
 31
0.0
  0
LINE
  8
layer186
 10
34.5321
 20
171.57300000000001
 30
0.0
 11
34.306100000000001
 21
168.22999999999999
 31
0.0
  0
LINE
  8
layer187
 10
31.1081
 20
168.22999999999999
 30
0.0
 11
30.4712
 21
169.096
 31
0.0
  0
LINE
  8
layer188
 10
30.4712
 20
169.096
 30
0.0
 11
29.932700000000001
 21
170.21000000000001
 31
0.0
  0
LINE
  8
layer189
 10
29.932700000000001
 20
170.21000000000001
 30
0.0
 11
29.119299999999999
 21
173.01300000000001
 31
0.0
  0
LINE
  8
layer190
 10
29.119299999999999
 20
173.01300000000001
 30
0.0
 11
28.604800000000001
 21
176.30500000000001
 31
0.0
  0
LINE
  8
layer191
 10
28.604800000000001
 20
176.30500000000001
 30
0.0
 11
28.325700000000001
 21
179.75
 31
0.0
  0
LINE
  8
layer192
 10
28.325700000000001
 20
179.75
 30
0.0
 11
28.220800000000001
 21
185.75800000000001
 31
0.0
  0
LINE
  8
layer193
 10
28.220800000000001
 20
185.75800000000001
 30
0.0
 11
28.298400000000001
 21
188.357
 31
0.0
  0
LINE
  8
layer194
 10
28.298400000000001
 20
188.357
 30
0.0
 11
28.298400000000001
 21
214.53899999999999
 31
0.0
  0
LINE
  8
layer195
 10
28.298400000000001
 20
214.53899999999999
 30
0.0
 11
27.904199999999999
 21
215.988
 31
0.0
  0
LINE
  8
layer196
 10
27.904199999999999
 20
215.988
 30
0.0
 11
26.683299999999999
 21
219.227
 31
0.0
  0
LINE
  8
layer197
 10
26.683299999999999
 20
219.227
 30
0.0
 11
25.744900000000001
 21
220.99799999999999
 31
0.0
  0
LINE
  8
layer198
 10
25.744900000000001
 20
220.99799999999999
 30
0.0
 11
24.578299999999999
 21
222.59200000000001
 31
0.0
  0
LINE
  8
layer199
 10
24.578299999999999
 20
222.59200000000001
 30
0.0
 11
23.176300000000001
 21
223.80199999999999
 31
0.0
  0
LINE
  8
layer200
 10
23.176300000000001
 20
223.80199999999999
 30
0.0
 11
22.384699999999999
 21
224.197
 31
0.0
  0
LINE
  8
layer201
 10
22.384699999999999
 20
224.197
 30
0.0
 11
21.531600000000001
 21
224.41900000000001
 31
0.0
  0
LINE
  8
layer202
 10
21.531600000000001
 20
224.41900000000001
 30
0.0
 11
16.219200000000001
 21
224.745
 31
0.0
  0
LINE
  8
layer203
 10
16.219200000000001
 20
224.745
 30
0.0
 11
9.1297599999999992
 21
224.80600000000001
 31
0.0
  0
LINE
  8
layer16
 10
0.26461000000000001
 20
224.68799999999999
 30
0.0
 11
0.26458700000000002
 21
215.941
 31
0.0
  0
LINE
  8
layer204
 10
9.1297599999999992
 20
224.80600000000001
 30
0.0
 11
0.26461000000000001
 21
224.68799999999999
 31
0.0
  0
LINE
  8
layer205
 10
33.174700000000001
 20
156.19900000000001
 30
0.0
 11
30.705400000000001
 21
156.61600000000001
 31
0.0
  0
LINE
  8
layer206
 10
30.705400000000001
 20
156.61600000000001
 30
0.0
 11
28.174299999999999
 21
157.25200000000001
 31
0.0
  0
LINE
  8
layer207
 10
28.174299999999999
 20
157.25200000000001
 30
0.0
 11
25.2728
 21
158.27600000000001
 31
0.0
  0
LINE
  8
layer208
 10
25.2728
 20
158.27600000000001
 30
0.0
 11
22.371400000000001
 21
159.762
 31
0.0
  0
LINE
  8
layer209
 10
22.371400000000001
 20
159.762
 30
0.0
 11
21.0364
 21
160.703
 31
0.0
  0
LINE
  8
layer210
 10
21.0364
 20
160.703
 30
0.0
 11
19.840299999999999
 21
161.78800000000001
 31
0.0
  0
LINE
  8
layer211
 10
19.840299999999999
 20
161.78800000000001
 30
0.0
 11
18.8294
 21
163.02799999999999
 31
0.0
  0
LINE
  8
layer212
 10
18.8294
 20
163.02799999999999
 30
0.0
 11
18.0501
 21
164.43000000000001
 31
0.0
  0
LINE
  8
layer213
 10
18.0501
 20
164.43000000000001
 30
0.0
 11
17.641100000000002
 21
165.61099999999999
 31
0.0
  0
LINE
  8
layer214
 10
17.548500000000001
 20
166.006
 30
0.0
 11
17.370999999999999
 21
167.76400000000001
 31
0.0
  0
LINE
  8
layer215
 10
17.370999999999999
 20
167.76400000000001
 30
0.0
 11
17.370999999999999
 21
205.89699999999999
 31
0.0
  0
LINE
  8
layer216
 10
17.370999999999999
 20
205.89699999999999
 30
0.0
 11
17.2455
 21
207.22900000000001
 31
0.0
  0
LINE
  8
layer217
 10
17.2455
 20
207.22900000000001
 30
0.0
 11
16.649100000000001
 21
210.23400000000001
 31
0.0
  0
LINE
  8
layer218
 10
16.649100000000001
 20
210.23400000000001
 30
0.0
 11
16.071000000000002
 21
211.899
 31
0.0
  0
LINE
  8
layer219
 10
16.071000000000002
 20
211.899
 30
0.0
 11
15.2514
 21
213.42500000000001
 31
0.0
  0
LINE
  8
layer220
 10
15.2514
 20
213.42500000000001
 30
0.0
 11
14.148899999999999
 21
214.625
 31
0.0
  0
LINE
  8
layer221
 10
14.148899999999999
 20
214.625
 30
0.0
 11
13.4787
 21
215.04499999999999
 31
0.0
  0
LINE
  8
layer222
 10
13.4787
 20
215.04499999999999
 30
0.0
 11
12.722300000000001
 21
215.31399999999999
 31
0.0
  0
LINE
  8
layer223
 10
12.722300000000001
 20
215.31399999999999
 30
0.0
 11
10.7896
 21
215.66499999999999
 31
0.0
  0
LINE
  8
layer224
 10
10.7896
 20
215.66499999999999
 30
0.0
 11
8.7224199999999996
 21
215.88800000000001
 31
0.0
  0
LINE
  8
layer225
 10
8.7224199999999996
 20
215.88800000000001
 30
0.0
 11
4.6682199999999998
 21
216.05099999999999
 31
0.0
  0
LINE
  8
layer16
 10
0.26458700000000002
 20
215.941
 30
0.0
 11
0.26458700000000002
 21
212.05099999999999
 31
0.0
  0
LINE
  8
layer226
 10
4.6682199999999998
 20
216.05099999999999
 30
0.0
 11
0.26458700000000002
 21
215.941
 31
0.0
  0
LINE
  8
default
 10
8.4181500000000007
 20
177.06399999999999
 30
0.0
 11
8.4181500000000007
 21
200.11500000000001
 31
0.0
  0
LINE
  8
default
 10
8.4181500000000007
 20
200.11500000000001
 30
0.0
 11
11.5749
 21
212.05099999999999
 31
0.0
  0
LINE
  8
layer16
 10
0.26458700000000002
 20
212.05099999999999
 30
0.0
 11
0.26458700000000002
 21
177.06399999999999
 31
0.0
  0
LINE
  8
default
 10
11.5749
 20
212.05099999999999
 30
0.0
 11
0.26458700000000002
 21
212.05099999999999
 31
0.0
  0
LINE
  8
layer213
 10
17.641100000000002
 20
165.61099999999999
 30
0.0
 11
17.548500000000001
 21
166.006
 31
0.0
  0
LINE
  8
layer230
 10
17.641100000000002
 20
165.61099999999999
 30
0.0
 11
11.875500000000001
 21
165.61099999999999
 31
0.0
  0
LINE
  8
default
 10
8.2868300000000001
 20
127.634
 30
0.0
 11
8.2868300000000001
 21
154.15899999999999
 31
0.0
  0
LINE
  8
layer16
 10
0.26458700000000002
 20
177.06399999999999
 30
0.0
 11
0.26458700000000002
 21
154.15899999999999
 31
0.0
  0
LINE
  8
default
 10
0.26458700000000002
 20
177.06399999999999
 30
0.0
 11
8.4181500000000007
 21
177.06399999999999
 31
0.0
  0
LINE
  8
default
 10
8.4181500000000007
 20
177.06399999999999
 30
0.0
 11
11.875500000000001
 21
177.06399999999999
 31
0.0
  0
LINE
  8
default
 10
11.875500000000001
 20
177.06399999999999
 30
0.0
 11
11.875500000000001
 21
165.61099999999999
 31
0.0
  0
LINE
  8
default
 10
11.875500000000001
 20
165.61099999999999
 30
0.0
 11
11.875500000000001
 21
154.15899999999999
 31
0.0
  0
LINE
  8
layer16
 10
0.26458700000000002
 20
154.15899999999999
 30
0.0
 11
0.26458700000000002
 21
114.229
 31
0.0
  0
LINE
  8
default
 10
11.875500000000001
 20
154.15899999999999
 30
0.0
 11
8.2868300000000001
 21
154.15899999999999
 31
0.0
  0
LINE
  8
default
 10
8.2868300000000001
 20
154.15899999999999
 30
0.0
 11
0.26458700000000002
 21
154.15899999999999
 31
0.0
  0
LINE
  8
layer235
 10
38.507399999999997
 20
285.291
 30
0.0
 11
39.483899999999998
 21
295.33499999999998
 31
0.0
  0
LINE
  8
layer236
 10
39.483899999999998
 20
295.33499999999998
 30
0.0
 11
39.483899999999998
 21
305.35000000000002
 31
0.0
  0
LINE
  8
layer237
 10
39.483899999999998
 20
305.35000000000002
 30
0.0
 11
33.834499999999998
 21
334.28500000000003
 31
0.0
  0
LINE
  8
layer238
 10
33.834499999999998
 20
334.28500000000003
 30
0.0
 11
28.630500000000001
 21
345.20400000000001
 31
0.0
  0
LINE
  8
layer239
 10
28.630500000000001
 20
345.20400000000001
 30
0.0
 11
27.866499999999998
 21
363.53800000000001
 31
0.0
  0
LINE
  8
layer240
 10
10.074999999999999
 20
373.553
 30
0.0
 11
10.074999999999999
 21
363.25299999999999
 31
0.0
  0
LINE
  8
layer241
 10
117.85899999999999
 20
268.61599999999999
 30
0.0
 11
94.886600000000001
 21
276.07999999999998
 31
0.0
  0
LINE
  8
layer242
 10
94.886600000000001
 20
276.07999999999998
 30
0.0
 11
48.233400000000003
 21
284.15699999999998
 31
0.0
  0
LINE
  8
layer243
 10
48.233400000000003
 20
284.15699999999998
 30
0.0
 11
40.799700000000001
 21
285.262
 31
0.0
  0
LINE
  8
layer244
 10
100.854
 20
263.65899999999999
 30
0.0
 11
111.077
 21
260.286
 31
0.0
  0
LINE
  8
layer245
 10
95.658699999999996
 20
258.92000000000002
 30
0.0
 11
94.578800000000001
 21
238.035
 31
0.0
  0
LINE
  8
layer246
 10
86.683999999999997
 20
238.035
 30
0.0
 11
85.357200000000006
 21
263.64800000000002
 31
0.0
  0
LINE
  8
layer247
 10
81.184799999999996
 20
268.33100000000002
 30
0.0
 11
69.848600000000005
 21
269.66399999999999
 31
0.0
  0
LINE
  8
layer248
 10
64.664100000000005
 20
264.93599999999998
 30
0.0
 11
63.944299999999998
 21
251.05799999999999
 31
0.0
  0
LINE
  8
layer249
 10
56.0383
 20
251.05799999999999
 30
0.0
 11
55.183599999999998
 21
267.63600000000002
 31
0.0
  0
LINE
  8
layer250
 10
50.505099999999999
 20
272.37599999999998
 30
0.0
 11
33.174700000000001
 21
273.28800000000001
 31
0.0
  0
LINE
  8
layer251
 10
94.578800000000001
 20
238.035
 30
0.0
 11
93.7196
 21
236.10400000000001
 31
0.0
  0
LINE
  8
layer252
 10
93.7196
 20
236.10400000000001
 30
0.0
 11
92.657799999999995
 21
234.892
 31
0.0
  0
LINE
  8
layer253
 10
92.657799999999995
 20
234.892
 30
0.0
 11
91.476399999999998
 21
234.316
 31
0.0
  0
LINE
  8
layer254
 10
91.476399999999998
 20
234.316
 30
0.0
 11
90.258499999999998
 21
234.29300000000001
 31
0.0
  0
LINE
  8
layer255
 10
90.258499999999998
 20
234.29300000000001
 30
0.0
 11
89.087299999999999
 21
234.73699999999999
 31
0.0
  0
LINE
  8
layer256
 10
89.087299999999999
 20
234.73699999999999
 30
0.0
 11
88.045699999999997
 21
235.565
 31
0.0
  0
LINE
  8
layer257
 10
88.045699999999997
 20
235.565
 30
0.0
 11
87.216899999999995
 21
236.69200000000001
 31
0.0
  0
LINE
  8
layer258
 10
87.216899999999995
 20
236.69200000000001
 30
0.0
 11
86.683999999999997
 21
238.035
 31
0.0
  0
LINE
  8
layer259
 10
100.854
 20
263.65899999999999
 30
0.0
 11
99.263000000000005
 21
263.58100000000002
 31
0.0
  0
LINE
  8
layer260
 10
99.263000000000005
 20
263.58100000000002
 30
0.0
 11
98.032399999999996
 21
263.10300000000001
 31
0.0
  0
LINE
  8
layer261
 10
98.032399999999996
 20
263.10300000000001
 30
0.0
 11
97.116500000000002
 21
262.35199999999998
 31
0.0
  0
LINE
  8
layer262
 10
97.116500000000002
 20
262.35199999999998
 30
0.0
 11
96.469700000000003
 21
261.45299999999997
 31
0.0
  0
LINE
  8
layer263
 10
96.469700000000003
 20
261.45299999999997
 30
0.0
 11
96.046099999999996
 21
260.53399999999999
 31
0.0
  0
LINE
  8
layer264
 10
96.046099999999996
 20
260.53399999999999
 30
0.0
 11
95.800200000000004
 21
259.721
 31
0.0
  0
LINE
  8
layer265
 10
95.800200000000004
 20
259.721
 30
0.0
 11
95.658699999999996
 21
258.92000000000002
 31
0.0
  0
LINE
  8
layer266
 10
85.357200000000006
 20
263.64800000000002
 30
0.0
 11
85.053899999999999
 21
265.06799999999998
 31
0.0
  0
LINE
  8
layer267
 10
85.053899999999999
 20
265.06799999999998
 30
0.0
 11
84.523099999999999
 21
266.17099999999999
 31
0.0
  0
LINE
  8
layer268
 10
84.523099999999999
 20
266.17099999999999
 30
0.0
 11
83.847300000000004
 21
266.995
 31
0.0
  0
LINE
  8
layer269
 10
83.847300000000004
 20
266.995
 30
0.0
 11
83.109099999999998
 21
267.58100000000002
 31
0.0
  0
LINE
  8
layer270
 10
83.109099999999998
 20
267.58100000000002
 30
0.0
 11
81.775999999999996
 21
268.19600000000003
 31
0.0
  0
LINE
  8
layer271
 10
81.775999999999996
 20
268.19600000000003
 30
0.0
 11
81.184799999999996
 21
268.33100000000002
 31
0.0
  0
LINE
  8
layer272
 10
40.799700000000001
 20
285.262
 30
0.0
 11
38.507399999999997
 21
285.291
 31
0.0
  0
LINE
  8
layer272
 10
38.507399999999997
 20
285.291
 30
0.0
 11
37.504600000000003
 21
285.31900000000002
 31
0.0
  0
LINE
  8
layer273
 10
37.504600000000003
 20
285.31900000000002
 30
0.0
 11
34.306100000000001
 21
285.31900000000002
 31
0.0
  0
LINE
  8
layer274
 10
117.85899999999999
 20
268.61599999999999
 30
0.0
 11
118.791
 21
268.14299999999997
 31
0.0
  0
LINE
  8
layer275
 10
118.791
 20
268.14299999999997
 30
0.0
 11
121.01900000000001
 21
266.74599999999998
 31
0.0
  0
LINE
  8
layer276
 10
121.01900000000001
 20
266.74599999999998
 30
0.0
 11
122.352
 21
265.70999999999998
 31
0.0
  0
LINE
  8
layer277
 10
122.352
 20
265.70999999999998
 30
0.0
 11
123.688
 21
264.45499999999998
 31
0.0
  0
LINE
  8
layer278
 10
123.688
 20
264.45499999999998
 30
0.0
 11
124.92100000000001
 21
262.98500000000001
 31
0.0
  0
LINE
  8
layer279
 10
124.92100000000001
 20
262.98500000000001
 30
0.0
 11
125.944
 21
261.30200000000002
 31
0.0
  0
LINE
  8
layer280
 10
125.944
 20
261.30200000000002
 30
0.0
 11
126.69499999999999
 21
259.56700000000001
 31
0.0
  0
LINE
  8
layer281
 10
126.69499999999999
 20
259.56700000000001
 30
0.0
 11
127.20999999999999
 21
257.95800000000003
 31
0.0
  0
LINE
  8
layer282
 10
127.20999999999999
 20
257.95800000000003
 30
0.0
 11
127.699
 21
255.24799999999999
 31
0.0
  0
LINE
  8
layer283
 10
127.699
 20
255.24799999999999
 30
0.0
 11
127.747
 21
253.43100000000001
 31
0.0
  0
LINE
  8
layer284
 10
127.747
 20
253.43100000000001
 30
0.0
 11
127.688
 21
252.767
 31
0.0
  0
LINE
  8
layer285
 10
111.077
 20
260.286
 30
0.0
 11
112.90600000000001
 21
259.34100000000001
 31
0.0
  0
LINE
  8
layer286
 10
112.90600000000001
 20
259.34100000000001
 30
0.0
 11
114.161
 21
258.46100000000001
 31
0.0
  0
LINE
  8
layer287
 10
114.161
 20
258.46100000000001
 30
0.0
 11
114.952
 21
257.59899999999999
 31
0.0
  0
LINE
  8
layer288
 10
114.952
 20
257.59899999999999
 30
0.0
 11
115.39100000000001
 21
256.70299999999997
 31
0.0
  0
LINE
  8
layer289
 10
115.39100000000001
 20
256.70299999999997
 30
0.0
 11
115.58799999999999
 21
255.72300000000001
 31
0.0
  0
LINE
  8
layer290
 10
115.58799999999999
 20
255.72300000000001
 30
0.0
 11
115.65600000000001
 21
254.608
 31
0.0
  0
LINE
  8
layer291
 10
115.65600000000001
 20
254.608
 30
0.0
 11
115.845
 21
251.77000000000001
 31
0.0
  0
LINE
  8
layer292
 10
127.688
 20
252.767
 30
0.0
 11
127.459
 21
251.90700000000001
 31
0.0
  0
LINE
  8
layer293
 10
127.459
 20
251.90700000000001
 30
0.0
 11
126.625
 21
250.01499999999999
 31
0.0
  0
LINE
  8
layer294
 10
126.625
 20
250.01499999999999
 30
0.0
 11
125.913
 21
249.005
 31
0.0
  0
LINE
  8
layer295
 10
125.913
 20
249.005
 30
0.0
 11
124.967
 21
248.124
 31
0.0
  0
LINE
  8
layer296
 10
124.967
 20
248.124
 30
0.0
 11
123.761
 21
247.5
 31
0.0
  0
LINE
  8
layer297
 10
123.761
 20
247.5
 30
0.0
 11
122.267
 21
247.26400000000001
 31
0.0
  0
LINE
  8
layer298
 10
122.267
 20
247.26400000000001
 30
0.0
 11
120.73
 21
247.45699999999999
 31
0.0
  0
LINE
  8
layer299
 10
120.73
 20
247.45699999999999
 30
0.0
 11
119.411
 21
247.96799999999999
 31
0.0
  0
LINE
  8
layer300
 10
119.411
 20
247.96799999999999
 30
0.0
 11
118.30500000000001
 21
248.69
 31
0.0
  0
LINE
  8
layer301
 10
118.30500000000001
 20
248.69
 30
0.0
 11
117.40900000000001
 21
249.517
 31
0.0
  0
LINE
  8
layer302
 10
117.40900000000001
 20
249.517
 30
0.0
 11
116.23099999999999
 21
251.066
 31
0.0
  0
LINE
  8
layer303
 10
116.23099999999999
 20
251.066
 30
0.0
 11
115.845
 21
251.77000000000001
 31
0.0
  0
LINE
  8
layer304
 10
63.944299999999998
 20
251.05799999999999
 30
0.0
 11
63.879300000000001
 21
250.44300000000001
 31
0.0
  0
LINE
  8
layer305
 10
63.879300000000001
 20
250.44300000000001
 30
0.0
 11
63.440899999999999
 21
249.102
 31
0.0
  0
LINE
  8
layer306
 10
63.440899999999999
 20
249.102
 30
0.0
 11
62.967799999999997
 21
248.39500000000001
 31
0.0
  0
LINE
  8
layer307
 10
62.967799999999997
 20
248.39500000000001
 30
0.0
 11
62.264600000000002
 21
247.78999999999999
 31
0.0
  0
LINE
  8
layer308
 10
62.264600000000002
 20
247.78999999999999
 30
0.0
 11
61.285800000000002
 21
247.38200000000001
 31
0.0
  0
LINE
  8
layer309
 10
61.285800000000002
 20
247.38200000000001
 30
0.0
 11
59.985700000000001
 21
247.26400000000001
 31
0.0
  0
LINE
  8
layer310
 10
59.985700000000001
 20
247.26400000000001
 30
0.0
 11
58.557699999999997
 21
247.477
 31
0.0
  0
LINE
  8
layer311
 10
58.557699999999997
 20
247.477
 30
0.0
 11
57.5199
 21
247.93100000000001
 31
0.0
  0
LINE
  8
layer312
 10
57.5199
 20
247.93100000000001
 30
0.0
 11
56.810600000000001
 21
248.542
 31
0.0
  0
LINE
  8
layer313
 10
56.810600000000001
 20
248.542
 30
0.0
 11
56.368400000000001
 21
249.227
 31
0.0
  0
LINE
  8
layer314
 10
56.368400000000001
 20
249.227
 30
0.0
 11
56.038800000000002
 21
250.49000000000001
 31
0.0
  0
LINE
  8
layer315
 10
56.038800000000002
 20
250.49000000000001
 30
0.0
 11
56.0383
 21
251.05799999999999
 31
0.0
  0
LINE
  8
layer316
 10
69.848600000000005
 20
269.66399999999999
 30
0.0
 11
69.365399999999994
 21
269.66500000000002
 31
0.0
  0
LINE
  8
layer317
 10
69.365399999999994
 20
269.66500000000002
 30
0.0
 11
68.198099999999997
 21
269.51900000000001
 31
0.0
  0
LINE
  8
layer318
 10
68.198099999999997
 20
269.51900000000001
 30
0.0
 11
66.770200000000003
 21
269.00299999999999
 31
0.0
  0
LINE
  8
layer319
 10
66.770200000000003
 20
269.00299999999999
 30
0.0
 11
66.090800000000002
 21
268.53699999999998
 31
0.0
  0
LINE
  8
layer320
 10
66.090800000000002
 20
268.53699999999998
 30
0.0
 11
65.504999999999995
 21
267.89299999999997
 31
0.0
  0
LINE
  8
layer321
 10
65.504999999999995
 20
267.89299999999997
 30
0.0
 11
64.990200000000002
 21
266.887
 31
0.0
  0
LINE
  8
layer322
 10
64.990200000000002
 20
266.887
 30
0.0
 11
64.743799999999993
 21
265.93000000000001
 31
0.0
  0
LINE
  8
layer323
 10
64.743799999999993
 20
265.93000000000001
 30
0.0
 11
64.664100000000005
 21
264.93599999999998
 31
0.0
  0
LINE
  8
layer324
 10
55.183599999999998
 20
267.63600000000002
 30
0.0
 11
54.808500000000002
 21
268.976
 31
0.0
  0
LINE
  8
layer325
 10
54.808500000000002
 20
268.976
 30
0.0
 11
54.310000000000002
 21
270.10199999999998
 31
0.0
  0
LINE
  8
layer326
 10
54.310000000000002
 20
270.10199999999998
 30
0.0
 11
53.592199999999998
 21
271.06200000000001
 31
0.0
  0
LINE
  8
layer327
 10
53.592199999999998
 20
271.06200000000001
 30
0.0
 11
52.705800000000004
 21
271.637
 31
0.0
  0
LINE
  8
layer328
 10
52.705800000000004
 20
271.637
 30
0.0
 11
51.689599999999999
 21
272.048
 31
0.0
  0
LINE
  8
layer329
 10
51.689599999999999
 20
272.048
 30
0.0
 11
50.505099999999999
 21
272.37599999999998
 31
0.0
  0
LINE
  8
layer16
 10
0.26458700000000002
 20
348.40699999999998
 30
0.0
 11
0.26458700000000002
 21
344.44299999999998
 31
0.0
  0
LINE
  8
layer347
 10
0.26458700000000002
 20
348.40699999999998
 30
0.0
 11
12.2905
 21
348.40699999999998
 31
0.0
  0
LINE
  8
layer348
 10
23.825600000000001
 20
373.00999999999999
 30
0.0
 11
25.524100000000001
 21
371.09500000000003
 31
0.0
  0
LINE
  8
layer349
 10
25.524100000000001
 20
371.09500000000003
 30
0.0
 11
26.523199999999999
 21
369.55700000000002
 31
0.0
  0
LINE
  8
layer350
 10
26.523199999999999
 20
369.55700000000002
 30
0.0
 11
27.049299999999999
 21
368.31099999999998
 31
0.0
  0
LINE
  8
layer351
 10
27.049299999999999
 20
368.31099999999998
 30
0.0
 11
27.328900000000001
 21
367.274
 31
0.0
  0
LINE
  8
layer352
 10
27.328900000000001
 20
367.274
 30
0.0
 11
27.7136
 21
364.92599999999999
 31
0.0
  0
LINE
  8
layer353
 10
27.7136
 20
364.92599999999999
 30
0.0
 11
27.866499999999998
 21
363.53800000000001
 31
0.0
  0
LINE
  8
layer354
 10
10.074999999999999
 20
373.553
 30
0.0
 11
10.297599999999999
 21
374.46300000000002
 31
0.0
  0
LINE
  8
layer355
 10
10.297599999999999
 20
374.46300000000002
 30
0.0
 11
10.727399999999999
 21
375.298
 31
0.0
  0
LINE
  8
layer356
 10
10.727399999999999
 20
375.298
 30
0.0
 11
11.504099999999999
 21
376.11700000000002
 31
0.0
  0
LINE
  8
layer357
 10
11.504099999999999
 20
376.11700000000002
 30
0.0
 11
12.0413
 21
376.38499999999999
 31
0.0
  0
LINE
  8
layer358
 10
12.0413
 20
376.38499999999999
 30
0.0
 11
12.8005
 21
376.54300000000001
 31
0.0
  0
LINE
  8
layer359
 10
12.8005
 20
376.54300000000001
 30
0.0
 11
15.0121
 21
376.55000000000001
 31
0.0
  0
LINE
  8
layer360
 10
15.0121
 20
376.55000000000001
 30
0.0
 11
16.6907
 21
376.36900000000003
 31
0.0
  0
LINE
  8
layer361
 10
16.6907
 20
376.36900000000003
 30
0.0
 11
18.879300000000001
 21
375.86700000000002
 31
0.0
  0
LINE
  8
layer362
 10
18.879300000000001
 20
375.86700000000002
 30
0.0
 11
21.337599999999998
 21
374.822
 31
0.0
  0
LINE
  8
layer363
 10
21.337599999999998
 20
374.822
 30
0.0
 11
22.5929
 21
374.02499999999998
 31
0.0
  0
LINE
  8
layer364
 10
22.5929
 20
374.02499999999998
 30
0.0
 11
23.825600000000001
 21
373.00999999999999
 31
0.0
  0
LINE
  8
layer365
 10
10.074999999999999
 20
363.25299999999999
 30
0.0
 11
10.193199999999999
 21
362.34399999999999
 31
0.0
  0
LINE
  8
layer366
 10
10.193199999999999
 20
362.34399999999999
 30
0.0
 11
10.622299999999999
 21
361.49599999999998
 31
0.0
  0
LINE
  8
layer367
 10
10.622299999999999
 20
361.49599999999998
 30
0.0
 11
11.548299999999999
 21
360.64400000000001
 31
0.0
  0
LINE
  8
layer368
 10
11.548299999999999
 20
360.64400000000001
 30
0.0
 11
14.5847
 21
358.35700000000003
 31
0.0
  0
LINE
  8
layer369
 10
14.5847
 20
358.35700000000003
 30
0.0
 11
16.3841
 21
356.86099999999999
 31
0.0
  0
LINE
  8
layer370
 10
16.3841
 20
356.86099999999999
 30
0.0
 11
16.881900000000002
 21
355.90499999999997
 31
0.0
  0
LINE
  8
layer371
 10
16.881900000000002
 20
355.90499999999997
 30
0.0
 11
17.1845
 21
354.81799999999998
 31
0.0
  0
LINE
  8
layer372
 10
17.1845
 20
354.81799999999998
 30
0.0
 11
17.238800000000001
 21
353.42000000000002
 31
0.0
  0
LINE
  8
layer373
 10
17.238800000000001
 20
353.42000000000002
 30
0.0
 11
17.042200000000001
 21
352.12299999999999
 31
0.0
  0
LINE
  8
layer374
 10
17.042200000000001
 20
352.12299999999999
 30
0.0
 11
16.7151
 21
351.17700000000002
 31
0.0
  0
LINE
  8
layer375
 10
16.7151
 20
351.17700000000002
 30
0.0
 11
16.229800000000001
 21
350.411
 31
0.0
  0
LINE
  8
layer376
 10
16.229800000000001
 20
350.411
 30
0.0
 11
15.558400000000001
 21
349.65499999999997
 31
0.0
  0
LINE
  8
layer377
 10
15.558400000000001
 20
349.65499999999997
 30
0.0
 11
14.542899999999999
 21
348.93400000000003
 31
0.0
  0
LINE
  8
layer378
 10
14.542899999999999
 20
348.93400000000003
 30
0.0
 11
13.4756
 21
348.56299999999999
 31
0.0
  0
LINE
  8
layer379
 10
13.4756
 20
348.56299999999999
 30
0.0
 11
12.2905
 21
348.40699999999998
 31
0.0
  0
LINE
  8
layer16
 10
0.26458700000000002
 20
344.44299999999998
 30
0.0
 11
0.26461000000000001
 21
341.77699999999999
 31
0.0
  0
LINE
  8
layer380
 10
0.26458700000000002
 20
344.44299999999998
 30
0.0
 11
21.113900000000001
 21
344.44299999999998
 31
0.0
  0
LINE
  8
layer381
 10
21.113900000000001
 20
344.44299999999998
 30
0.0
 11
22.755500000000001
 21
343.99599999999998
 31
0.0
  0
LINE
  8
layer382
 10
22.755500000000001
 20
343.99599999999998
 30
0.0
 11
24.291599999999999
 21
343.25599999999997
 31
0.0
  0
LINE
  8
layer383
 10
24.291599999999999
 20
343.25599999999997
 30
0.0
 11
25.8461
 21
342.00799999999998
 31
0.0
  0
LINE
  8
layer384
 10
25.8461
 20
342.00799999999998
 30
0.0
 11
27.550799999999999
 21
339.98500000000001
 31
0.0
  0
LINE
  8
layer385
 10
27.550799999999999
 20
339.98500000000001
 30
0.0
 11
29.4175
 21
337.197
 31
0.0
  0
LINE
  8
layer386
 10
29.4175
 20
337.197
 30
0.0
 11
30.247699999999998
 21
335.60500000000002
 31
0.0
  0
LINE
  8
layer387
 10
30.247699999999998
 20
335.60500000000002
 30
0.0
 11
30.921900000000001
 21
333.93099999999998
 31
0.0
  0
LINE
  8
layer388
 10
30.921900000000001
 20
333.93099999999998
 30
0.0
 11
31.374500000000001
 21
332.20999999999998
 31
0.0
  0
LINE
  8
layer389
 10
31.374500000000001
 20
332.20999999999998
 30
0.0
 11
31.539899999999999
 21
330.47800000000001
 31
0.0
  0
LINE
  8
layer390
 10
31.539899999999999
 20
330.47800000000001
 30
0.0
 11
31.724699999999999
 21
325.37900000000002
 31
0.0
  0
LINE
  8
layer391
 10
31.724699999999999
 20
325.37900000000002
 30
0.0
 11
32.210599999999999
 21
318.38200000000001
 31
0.0
  0
LINE
  8
layer392
 10
32.210599999999999
 20
318.38200000000001
 30
0.0
 11
32.895000000000003
 21
311.59100000000001
 31
0.0
  0
LINE
  8
layer393
 10
32.895000000000003
 20
311.59100000000001
 30
0.0
 11
33.279499999999999
 21
308.92899999999997
 31
0.0
  0
LINE
  8
layer394
 10
33.279499999999999
 20
308.92899999999997
 30
0.0
 11
33.675199999999997
 21
307.10700000000003
 31
0.0
  0
LINE
  8
layer395
 10
33.675199999999997
 20
307.10700000000003
 30
0.0
 11
34.246899999999997
 21
304.596
 31
0.0
  0
LINE
  8
layer396
 10
34.246899999999997
 20
304.596
 30
0.0
 11
34.469900000000003
 21
302.29000000000002
 31
0.0
  0
LINE
  8
layer397
 10
34.469900000000003
 20
302.29000000000002
 30
0.0
 11
34.442300000000003
 21
298.09899999999999
 31
0.0
  0
LINE
  8
layer398
 10
34.442300000000003
 20
298.09899999999999
 30
0.0
 11
34.557499999999997
 21
293.63299999999998
 31
0.0
  0
LINE
  8
layer399
 10
34.557499999999997
 20
293.63299999999998
 30
0.0
 11
34.607999999999997
 21
291.17099999999999
 31
0.0
  0
LINE
  8
layer400
 10
34.607999999999997
 20
291.17099999999999
 30
0.0
 11
34.5321
 21
288.66199999999998
 31
0.0
  0
LINE
  8
layer273
 10
34.306100000000001
 20
285.31900000000002
 30
0.0
 11
31.1081
 21
285.31900000000002
 31
0.0
  0
LINE
  8
layer401
 10
34.5321
 20
288.66199999999998
 30
0.0
 11
34.306100000000001
 21
285.31900000000002
 31
0.0
  0
LINE
  8
layer402
 10
31.1081
 20
285.31900000000002
 30
0.0
 11
30.4712
 21
286.185
 31
0.0
  0
LINE
  8
layer403
 10
30.4712
 20
286.185
 30
0.0
 11
29.932700000000001
 21
287.29899999999998
 31
0.0
  0
LINE
  8
layer404
 10
29.932700000000001
 20
287.29899999999998
 30
0.0
 11
29.119299999999999
 21
290.10199999999998
 31
0.0
  0
LINE
  8
layer405
 10
29.119299999999999
 20
290.10199999999998
 30
0.0
 11
28.604800000000001
 21
293.39400000000001
 31
0.0
  0
LINE
  8
layer406
 10
28.604800000000001
 20
293.39400000000001
 30
0.0
 11
28.325700000000001
 21
296.839
 31
0.0
  0
LINE
  8
layer407
 10
28.325700000000001
 20
296.839
 30
0.0
 11
28.220800000000001
 21
302.84699999999998
 31
0.0
  0
LINE
  8
layer408
 10
28.220800000000001
 20
302.84699999999998
 30
0.0
 11
28.298400000000001
 21
305.44600000000003
 31
0.0
  0
LINE
  8
layer409
 10
28.298400000000001
 20
305.44600000000003
 30
0.0
 11
28.298400000000001
 21
331.62799999999999
 31
0.0
  0
LINE
  8
layer410
 10
28.298400000000001
 20
331.62799999999999
 30
0.0
 11
27.904199999999999
 21
333.077
 31
0.0
  0
LINE
  8
layer411
 10
27.904199999999999
 20
333.077
 30
0.0
 11
26.683299999999999
 21
336.31599999999997
 31
0.0
  0
LINE
  8
layer412
 10
26.683299999999999
 20
336.31599999999997
 30
0.0
 11
25.744900000000001
 21
338.08699999999999
 31
0.0
  0
LINE
  8
layer413
 10
25.744900000000001
 20
338.08699999999999
 30
0.0
 11
24.578299999999999
 21
339.68099999999998
 31
0.0
  0
LINE
  8
layer414
 10
24.578299999999999
 20
339.68099999999998
 30
0.0
 11
23.176300000000001
 21
340.89100000000002
 31
0.0
  0
LINE
  8
layer415
 10
23.176300000000001
 20
340.89100000000002
 30
0.0
 11
22.384699999999999
 21
341.286
 31
0.0
  0
LINE
  8
layer416
 10
22.384699999999999
 20
341.286
 30
0.0
 11
21.531600000000001
 21
341.50799999999998
 31
0.0
  0
LINE
  8
layer417
 10
21.531600000000001
 20
341.50799999999998
 30
0.0
 11
16.219200000000001
 21
341.834
 31
0.0
  0
LINE
  8
layer418
 10
16.219200000000001
 20
341.834
 30
0.0
 11
9.1297599999999992
 21
341.89499999999998
 31
0.0
  0
LINE
  8
layer16
 10
0.26461000000000001
 20
341.77699999999999
 30
0.0
 11
0.26458700000000002
 21
333.02999999999997
 31
0.0
  0
LINE
  8
layer419
 10
9.1297599999999992
 20
341.89499999999998
 30
0.0
 11
0.26461000000000001
 21
341.77699999999999
 31
0.0
  0
LINE
  8
layer420
 10
33.174700000000001
 20
273.28800000000001
 30
0.0
 11
30.705400000000001
 21
273.70499999999998
 31
0.0
  0
LINE
  8
layer421
 10
30.705400000000001
 20
273.70499999999998
 30
0.0
 11
28.174299999999999
 21
274.34100000000001
 31
0.0
  0
LINE
  8
layer422
 10
28.174299999999999
 20
274.34100000000001
 30
0.0
 11
25.2728
 21
275.36500000000001
 31
0.0
  0
LINE
  8
layer423
 10
25.2728
 20
275.36500000000001
 30
0.0
 11
22.371400000000001
 21
276.851
 31
0.0
  0
LINE
  8
layer424
 10
22.371400000000001
 20
276.851
 30
0.0
 11
21.0364
 21
277.79199999999997
 31
0.0
  0
LINE
  8
layer425
 10
21.0364
 20
277.79199999999997
 30
0.0
 11
19.840299999999999
 21
278.87700000000001
 31
0.0
  0
LINE
  8
layer426
 10
19.840299999999999
 20
278.87700000000001
 30
0.0
 11
18.8294
 21
280.11700000000002
 31
0.0
  0
LINE
  8
layer427
 10
18.8294
 20
280.11700000000002
 30
0.0
 11
18.0501
 21
281.51900000000001
 31
0.0
  0
LINE
  8
layer428
 10
18.0501
 20
281.51900000000001
 30
0.0
 11
17.641100000000002
 21
282.69999999999999
 31
0.0
  0
LINE
  8
layer429
 10
17.548500000000001
 20
283.09500000000003
 30
0.0
 11
17.370999999999999
 21
284.85300000000001
 31
0.0
  0
LINE
  8
layer430
 10
17.370999999999999
 20
284.85300000000001
 30
0.0
 11
17.370999999999999
 21
322.98599999999999
 31
0.0
  0
LINE
  8
layer431
 10
17.370999999999999
 20
322.98599999999999
 30
0.0
 11
17.2455
 21
324.31799999999998
 31
0.0
  0
LINE
  8
layer432
 10
17.2455
 20
324.31799999999998
 30
0.0
 11
16.649100000000001
 21
327.32299999999998
 31
0.0
  0
LINE
  8
layer433
 10
16.649100000000001
 20
327.32299999999998
 30
0.0
 11
16.071000000000002
 21
328.988
 31
0.0
  0
LINE
  8
layer434
 10
16.071000000000002
 20
328.988
 30
0.0
 11
15.2514
 21
330.51400000000001
 31
0.0
  0
LINE
  8
layer435
 10
15.2514
 20
330.51400000000001
 30
0.0
 11
14.148899999999999
 21
331.714
 31
0.0
  0
LINE
  8
layer436
 10
14.148899999999999
 20
331.714
 30
0.0
 11
13.4787
 21
332.13400000000001
 31
0.0
  0
LINE
  8
layer437
 10
13.4787
 20
332.13400000000001
 30
0.0
 11
12.722300000000001
 21
332.40300000000002
 31
0.0
  0
LINE
  8
layer438
 10
12.722300000000001
 20
332.40300000000002
 30
0.0
 11
10.7896
 21
332.75400000000002
 31
0.0
  0
LINE
  8
layer439
 10
10.7896
 20
332.75400000000002
 30
0.0
 11
8.7224199999999996
 21
332.97699999999998
 31
0.0
  0
LINE
  8
layer440
 10
8.7224199999999996
 20
332.97699999999998
 30
0.0
 11
4.6682199999999998
 21
333.13999999999999
 31
0.0
  0
LINE
  8
layer16
 10
0.26458700000000002
 20
333.02999999999997
 30
0.0
 11
0.26458700000000002
 21
329.13999999999999
 31
0.0
  0
LINE
  8
layer441
 10
4.6682199999999998
 20
333.13999999999999
 30
0.0
 11
0.26458700000000002
 21
333.02999999999997
 31
0.0
  0
LINE
  8
layer442
 10
8.28688
 20
294.15300000000002
 30
0.0
 11
8.28688
 21
317.20400000000001
 31
0.0
  0
LINE
  8
layer443
 10
8.28688
 20
317.20400000000001
 30
0.0
 11
11.4437
 21
329.13999999999999
 31
0.0
  0
LINE
  8
layer16
 10
0.26458700000000002
 20
329.13999999999999
 30
0.0
 11
0.26458700000000002
 21
294.15300000000002
 31
0.0
  0
LINE
  8
layer444
 10
11.4437
 20
329.13999999999999
 30
0.0
 11
0.26458700000000002
 21
329.13999999999999
 31
0.0
  0
LINE
  8
layer428
 10
17.641100000000002
 20
282.69999999999999
 30
0.0
 11
17.548500000000001
 21
283.09500000000003
 31
0.0
  0
LINE
  8
layer445
 10
17.641100000000002
 20
282.69999999999999
 30
0.0
 11
11.941155732623123
 21
282.69999999999999
 31
0.0
  0
LINE
  8
layer446
 10
8.2868300000000001
 20
244.72300000000001
 30
0.0
 11
8.2868300000000001
 21
271.24799999999999
 31
0.0
  0
LINE
  8
layer16
 10
0.26458700000000002
 20
294.15300000000002
 30
0.0
 11
0.26458700000000002
 21
271.24799999999999
 31
0.0
  0
LINE
  8
layer447
 10
0.26458700000000002
 20
294.15300000000002
 30
0.0
 11
8.28688
 21
294.15300000000002
 31
0.0
  0
LINE
  8
layer447
 10
8.28688
 20
294.15300000000002
 30
0.0
 11
11.875500000000001
 21
294.15300000000002
 31
0.0
  0
LINE
  8
layer445
 10
11.941155732623123
 20
282.69999999999999
 30
0.0
 11
11.875500000000001
 21
282.69999999999999
 31
0.0
  0
LINE
  8
layer448
 10
11.875500000000001
 20
294.15300000000002
 30
0.0
 11
11.941155732623123
 21
282.69999999999999
 31
0.0
  0
LINE
  8
layer448
 10
11.941155732623123
 20
282.69999999999999
 30
0.0
 11
12.0068
 21
271.24900000000002
 31
0.0
  0
LINE
  8
layer16
 10
0.26458700000000002
 20
271.24799999999999
 30
0.0
 11
0.26460699999999998
 21
231.31800000000001
 31
0.0
  0
LINE
  8
layer449
 10
12.0068
 20
271.24900000000002
 30
0.0
 11
8.2868300000000001
 21
271.24799999999999
 31
0.0
  0
LINE
  8
layer449
 10
8.2868300000000001
 20
271.24799999999999
 30
0.0
 11
0.26458700000000002
 21
271.24799999999999
 31
0.0
  0
LINE
  8
default
 10
38.507399999999997
 20
402.38
 30
0.0
 11
39.483899999999998
 21
412.42399999999998
 31
0.0
  0
LINE
  8
default
 10
39.483899999999998
 20
412.42399999999998
 30
0.0
 11
39.483899999999998
 21
422.43900000000002
 31
0.0
  0
LINE
  8
default
 10
39.483899999999998
 20
422.43900000000002
 30
0.0
 11
33.834499999999998
 21
451.37400000000002
 31
0.0
  0
LINE
  8
default
 10
33.834499999999998
 20
451.37400000000002
 30
0.0
 11
28.630500000000001
 21
462.29300000000001
 31
0.0
  0
LINE
  8
default
 10
28.630500000000001
 20
462.29300000000001
 30
0.0
 11
27.866499999999998
 21
480.62700000000001
 31
0.0
  0
LINE
  8
default
 10
10.074999999999999
 20
490.642
 30
0.0
 11
10.074999999999999
 21
480.34199999999998
 31
0.0
  0
LINE
  8
layer456
 10
117.85899999999999
 20
385.70499999999998
 30
0.0
 11
94.886600000000001
 21
393.16899999999998
 31
0.0
  0
LINE
  8
layer457
 10
94.886600000000001
 20
393.16899999999998
 30
0.0
 11
48.233400000000003
 21
401.24599999999998
 31
0.0
  0
LINE
  8
layer458
 10
48.233400000000003
 20
401.24599999999998
 30
0.0
 11
40.799700000000001
 21
402.351
 31
0.0
  0
LINE
  8
layer459
 10
100.854
 20
380.74900000000002
 30
0.0
 11
111.077
 21
377.37599999999998
 31
0.0
  0
LINE
  8
layer460
 10
95.658699999999996
 20
376.00900000000001
 30
0.0
 11
94.578800000000001
 21
355.12400000000002
 31
0.0
  0
LINE
  8
layer461
 10
86.683999999999997
 20
355.12400000000002
 30
0.0
 11
85.357200000000006
 21
380.73700000000002
 31
0.0
  0
LINE
  8
layer462
 10
81.184799999999996
 20
385.42000000000002
 30
0.0
 11
69.848600000000005
 21
386.75299999999999
 31
0.0
  0
LINE
  8
layer463
 10
64.664100000000005
 20
382.02499999999998
 30
0.0
 11
63.944299999999998
 21
368.14699999999999
 31
0.0
  0
LINE
  8
layer464
 10
56.0383
 20
368.14699999999999
 30
0.0
 11
55.183599999999998
 21
384.72500000000002
 31
0.0
  0
LINE
  8
layer465
 10
50.505099999999999
 20
389.46499999999997
 30
0.0
 11
33.174700000000001
 21
390.37599999999998
 31
0.0
  0
LINE
  8
layer466
 10
94.578800000000001
 20
355.12400000000002
 30
0.0
 11
93.7196
 21
353.19299999999998
 31
0.0
  0
LINE
  8
layer467
 10
93.7196
 20
353.19299999999998
 30
0.0
 11
92.657799999999995
 21
351.98099999999999
 31
0.0
  0
LINE
  8
layer468
 10
92.657799999999995
 20
351.98099999999999
 30
0.0
 11
91.476399999999998
 21
351.40499999999997
 31
0.0
  0
LINE
  8
layer469
 10
91.476399999999998
 20
351.40499999999997
 30
0.0
 11
90.258499999999998
 21
351.38200000000001
 31
0.0
  0
LINE
  8
layer470
 10
90.258499999999998
 20
351.38200000000001
 30
0.0
 11
89.087299999999999
 21
351.82600000000002
 31
0.0
  0
LINE
  8
layer471
 10
89.087299999999999
 20
351.82600000000002
 30
0.0
 11
88.045699999999997
 21
352.654
 31
0.0
  0
LINE
  8
layer472
 10
88.045699999999997
 20
352.654
 30
0.0
 11
87.216899999999995
 21
353.78100000000001
 31
0.0
  0
LINE
  8
layer473
 10
87.216899999999995
 20
353.78100000000001
 30
0.0
 11
86.683999999999997
 21
355.12400000000002
 31
0.0
  0
LINE
  8
layer474
 10
100.854
 20
380.74900000000002
 30
0.0
 11
99.263099999999994
 21
380.67099999999999
 31
0.0
  0
LINE
  8
layer475
 10
99.263099999999994
 20
380.67099999999999
 30
0.0
 11
98.032700000000006
 21
380.19299999999998
 31
0.0
  0
LINE
  8
layer476
 10
98.032700000000006
 20
380.19299999999998
 30
0.0
 11
97.116900000000001
 21
379.44099999999997
 31
0.0
  0
LINE
  8
layer477
 10
97.116900000000001
 20
379.44099999999997
 30
0.0
 11
96.470100000000002
 21
378.54300000000001
 31
0.0
  0
LINE
  8
layer478
 10
96.470100000000002
 20
378.54300000000001
 30
0.0
 11
96.046599999999998
 21
377.62400000000002
 31
0.0
  0
LINE
  8
layer479
 10
96.046599999999998
 20
377.62400000000002
 30
0.0
 11
95.800600000000003
 21
376.81099999999998
 31
0.0
  0
LINE
  8
layer480
 10
95.800600000000003
 20
376.81099999999998
 30
0.0
 11
95.658699999999996
 21
376.00900000000001
 31
0.0
  0
LINE
  8
layer481
 10
85.357200000000006
 20
380.73700000000002
 30
0.0
 11
85.053899999999999
 21
382.15699999999998
 31
0.0
  0
LINE
  8
layer482
 10
85.053899999999999
 20
382.15699999999998
 30
0.0
 11
84.523099999999999
 21
383.25999999999999
 31
0.0
  0
LINE
  8
layer483
 10
84.523099999999999
 20
383.25999999999999
 30
0.0
 11
83.847200000000001
 21
384.084
 31
0.0
  0
LINE
  8
layer484
 10
83.847200000000001
 20
384.084
 30
0.0
 11
83.108999999999995
 21
384.67000000000002
 31
0.0
  0
LINE
  8
layer485
 10
83.108999999999995
 20
384.67000000000002
 30
0.0
 11
81.775999999999996
 21
385.28500000000003
 31
0.0
  0
LINE
  8
layer486
 10
81.775999999999996
 20
385.28500000000003
 30
0.0
 11
81.184799999999996
 21
385.42000000000002
 31
0.0
  0
LINE
  8
layer487
 10
40.799700000000001
 20
402.351
 30
0.0
 11
38.507399999999997
 21
402.38
 31
0.0
  0
LINE
  8
default
 10
38.507399999999997
 20
402.38
 30
0.0
 11
37.504600000000003
 21
402.40800000000002
 31
0.0
  0
LINE
  8
default
 10
37.504600000000003
 20
402.40800000000002
 30
0.0
 11
34.306100000000001
 21
402.40800000000002
 31
0.0
  0
LINE
  8
layer489
 10
117.85899999999999
 20
385.70499999999998
 30
0.0
 11
118.791
 21
385.23200000000003
 31
0.0
  0
LINE
  8
layer490
 10
118.791
 20
385.23200000000003
 30
0.0
 11
121.01900000000001
 21
383.83499999999998
 31
0.0
  0
LINE
  8
layer491
 10
121.01900000000001
 20
383.83499999999998
 30
0.0
 11
122.352
 21
382.79899999999998
 31
0.0
  0
LINE
  8
layer492
 10
122.352
 20
382.79899999999998
 30
0.0
 11
123.688
 21
381.54399999999998
 31
0.0
  0
LINE
  8
layer493
 10
123.688
 20
381.54399999999998
 30
0.0
 11
124.92100000000001
 21
380.07400000000001
 31
0.0
  0
LINE
  8
layer494
 10
124.92100000000001
 20
380.07400000000001
 30
0.0
 11
125.944
 21
378.39100000000002
 31
0.0
  0
LINE
  8
layer495
 10
125.944
 20
378.39100000000002
 30
0.0
 11
126.69499999999999
 21
376.65600000000001
 31
0.0
  0
LINE
  8
layer496
 10
126.69499999999999
 20
376.65600000000001
 30
0.0
 11
127.20999999999999
 21
375.04700000000003
 31
0.0
  0
LINE
  8
layer497
 10
127.20999999999999
 20
375.04700000000003
 30
0.0
 11
127.699
 21
372.33699999999999
 31
0.0
  0
LINE
  8
layer498
 10
127.699
 20
372.33699999999999
 30
0.0
 11
127.747
 21
370.51999999999998
 31
0.0
  0
LINE
  8
layer499
 10
127.747
 20
370.51999999999998
 30
0.0
 11
127.688
 21
369.85599999999999
 31
0.0
  0
LINE
  8
layer500
 10
111.077
 20
377.37599999999998
 30
0.0
 11
112.90600000000001
 21
376.43000000000001
 31
0.0
  0
LINE
  8
layer501
 10
112.90600000000001
 20
376.43000000000001
 30
0.0
 11
114.161
 21
375.55000000000001
 31
0.0
  0
LINE
  8
layer502
 10
114.161
 20
375.55000000000001
 30
0.0
 11
114.952
 21
374.68799999999999
 31
0.0
  0
LINE
  8
layer503
 10
114.952
 20
374.68799999999999
 30
0.0
 11
115.39100000000001
 21
373.79199999999997
 31
0.0
  0
LINE
  8
layer504
 10
115.39100000000001
 20
373.79199999999997
 30
0.0
 11
115.58799999999999
 21
372.81200000000001
 31
0.0
  0
LINE
  8
layer505
 10
115.58799999999999
 20
372.81200000000001
 30
0.0
 11
115.65600000000001
 21
371.697
 31
0.0
  0
LINE
  8
layer506
 10
115.65600000000001
 20
371.697
 30
0.0
 11
115.845
 21
368.85899999999998
 31
0.0
  0
LINE
  8
layer507
 10
127.688
 20
369.85599999999999
 30
0.0
 11
127.459
 21
368.99599999999998
 31
0.0
  0
LINE
  8
layer508
 10
127.459
 20
368.99599999999998
 30
0.0
 11
126.625
 21
367.10399999999998
 31
0.0
  0
LINE
  8
layer509
 10
126.625
 20
367.10399999999998
 30
0.0
 11
125.913
 21
366.09399999999999
 31
0.0
  0
LINE
  8
layer510
 10
125.913
 20
366.09399999999999
 30
0.0
 11
124.967
 21
365.21300000000002
 31
0.0
  0
LINE
  8
layer511
 10
124.967
 20
365.21300000000002
 30
0.0
 11
123.761
 21
364.589
 31
0.0
  0
LINE
  8
layer512
 10
123.761
 20
364.589
 30
0.0
 11
122.267
 21
364.35300000000001
 31
0.0
  0
LINE
  8
layer513
 10
122.267
 20
364.35300000000001
 30
0.0
 11
120.73
 21
364.54599999999999
 31
0.0
  0
LINE
  8
layer514
 10
120.73
 20
364.54599999999999
 30
0.0
 11
119.411
 21
365.05700000000002
 31
0.0
  0
LINE
  8
layer515
 10
119.411
 20
365.05700000000002
 30
0.0
 11
118.30500000000001
 21
365.779
 31
0.0
  0
LINE
  8
layer516
 10
118.30500000000001
 20
365.779
 30
0.0
 11
117.40900000000001
 21
366.60599999999999
 31
0.0
  0
LINE
  8
layer517
 10
117.40900000000001
 20
366.60599999999999
 30
0.0
 11
116.23099999999999
 21
368.15499999999997
 31
0.0
  0
LINE
  8
layer518
 10
116.23099999999999
 20
368.15499999999997
 30
0.0
 11
115.845
 21
368.85899999999998
 31
0.0
  0
LINE
  8
layer519
 10
63.944299999999998
 20
368.14699999999999
 30
0.0
 11
63.879300000000001
 21
367.53199999999998
 31
0.0
  0
LINE
  8
layer520
 10
63.879300000000001
 20
367.53199999999998
 30
0.0
 11
63.440899999999999
 21
366.19099999999997
 31
0.0
  0
LINE
  8
layer521
 10
63.440899999999999
 20
366.19099999999997
 30
0.0
 11
62.967799999999997
 21
365.48399999999998
 31
0.0
  0
LINE
  8
layer522
 10
62.967799999999997
 20
365.48399999999998
 30
0.0
 11
62.264600000000002
 21
364.87900000000002
 31
0.0
  0
LINE
  8
layer523
 10
62.264600000000002
 20
364.87900000000002
 30
0.0
 11
61.285800000000002
 21
364.471
 31
0.0
  0
LINE
  8
layer524
 10
61.285800000000002
 20
364.471
 30
0.0
 11
59.985700000000001
 21
364.35300000000001
 31
0.0
  0
LINE
  8
layer525
 10
59.985700000000001
 20
364.35300000000001
 30
0.0
 11
58.557699999999997
 21
364.56599999999997
 31
0.0
  0
LINE
  8
layer526
 10
58.557699999999997
 20
364.56599999999997
 30
0.0
 11
57.5199
 21
365.01999999999998
 31
0.0
  0
LINE
  8
layer527
 10
57.5199
 20
365.01999999999998
 30
0.0
 11
56.810600000000001
 21
365.63
 31
0.0
  0
LINE
  8
layer528
 10
56.810600000000001
 20
365.63
 30
0.0
 11
56.368400000000001
 21
366.31599999999997
 31
0.0
  0
LINE
  8
layer529
 10
56.368400000000001
 20
366.31599999999997
 30
0.0
 11
56.038800000000002
 21
367.57900000000001
 31
0.0
  0
LINE
  8
layer530
 10
56.038800000000002
 20
367.57900000000001
 30
0.0
 11
56.0383
 21
368.14699999999999
 31
0.0
  0
LINE
  8
layer531
 10
69.848600000000005
 20
386.75299999999999
 30
0.0
 11
69.365399999999994
 21
386.75400000000002
 31
0.0
  0
LINE
  8
layer532
 10
69.365399999999994
 20
386.75400000000002
 30
0.0
 11
68.198099999999997
 21
386.608
 31
0.0
  0
LINE
  8
layer533
 10
68.198099999999997
 20
386.608
 30
0.0
 11
66.770200000000003
 21
386.09199999999998
 31
0.0
  0
LINE
  8
layer534
 10
66.770200000000003
 20
386.09199999999998
 30
0.0
 11
66.090800000000002
 21
385.62599999999998
 31
0.0
  0
LINE
  8
layer535
 10
66.090800000000002
 20
385.62599999999998
 30
0.0
 11
65.504999999999995
 21
384.98200000000003
 31
0.0
  0
LINE
  8
layer536
 10
65.504999999999995
 20
384.98200000000003
 30
0.0
 11
64.990200000000002
 21
383.976
 31
0.0
  0
LINE
  8
layer537
 10
64.990200000000002
 20
383.976
 30
0.0
 11
64.743799999999993
 21
383.01900000000001
 31
0.0
  0
LINE
  8
layer538
 10
64.743799999999993
 20
383.01900000000001
 30
0.0
 11
64.664100000000005
 21
382.02499999999998
 31
0.0
  0
LINE
  8
layer539
 10
55.183599999999998
 20
384.72500000000002
 30
0.0
 11
54.808500000000002
 21
386.065
 31
0.0
  0
LINE
  8
layer540
 10
54.808500000000002
 20
386.065
 30
0.0
 11
54.310000000000002
 21
387.19099999999997
 31
0.0
  0
LINE
  8
layer541
 10
54.310000000000002
 20
387.19099999999997
 30
0.0
 11
53.592199999999998
 21
388.15100000000001
 31
0.0
  0
LINE
  8
layer542
 10
53.592199999999998
 20
388.15100000000001
 30
0.0
 11
52.705800000000004
 21
388.726
 31
0.0
  0
LINE
  8
layer543
 10
52.705800000000004
 20
388.726
 30
0.0
 11
51.689599999999999
 21
389.137
 31
0.0
  0
LINE
  8
layer544
 10
51.689599999999999
 20
389.137
 30
0.0
 11
50.505099999999999
 21
389.46499999999997
 31
0.0
  0
LINE
  8
layer16
 10
0.26458700000000002
 20
465.49599999999998
 30
0.0
 11
0.26458700000000002
 21
461.53199999999998
 31
0.0
  0
LINE
  8
default
 10
0.26458700000000002
 20
465.49599999999998
 30
0.0
 11
12.2905
 21
465.49599999999998
 31
0.0
  0
LINE
  8
default
 10
23.825600000000001
 20
490.09899999999999
 30
0.0
 11
25.524100000000001
 21
488.18400000000003
 31
0.0
  0
LINE
  8
default
 10
25.524100000000001
 20
488.18400000000003
 30
0.0
 11
26.523199999999999
 21
486.64600000000002
 31
0.0
  0
LINE
  8
default
 10
26.523199999999999
 20
486.64600000000002
 30
0.0
 11
27.049299999999999
 21
485.39999999999998
 31
0.0
  0
LINE
  8
default
 10
27.049299999999999
 20
485.39999999999998
 30
0.0
 11
27.328900000000001
 21
484.363
 31
0.0
  0
LINE
  8
default
 10
27.328900000000001
 20
484.363
 30
0.0
 11
27.7136
 21
482.01499999999999
 31
0.0
  0
LINE
  8
default
 10
27.7136
 20
482.01499999999999
 30
0.0
 11
27.866499999999998
 21
480.62700000000001
 31
0.0
  0
LINE
  8
default
 10
10.074999999999999
 20
490.642
 30
0.0
 11
10.297599999999999
 21
491.55200000000002
 31
0.0
  0
LINE
  8
default
 10
10.297599999999999
 20
491.55200000000002
 30
0.0
 11
10.727399999999999
 21
492.387
 31
0.0
  0
LINE
  8
default
 10
10.727399999999999
 20
492.387
 30
0.0
 11
11.504099999999999
 21
493.20600000000002
 31
0.0
  0
LINE
  8
default
 10
11.504099999999999
 20
493.20600000000002
 30
0.0
 11
12.0413
 21
493.47399999999999
 31
0.0
  0
LINE
  8
default
 10
12.0413
 20
493.47399999999999
 30
0.0
 11
12.8005
 21
493.63200000000001
 31
0.0
  0
LINE
  8
default
 10
12.8005
 20
493.63200000000001
 30
0.0
 11
15.0121
 21
493.63900000000001
 31
0.0
  0
LINE
  8
default
 10
15.0121
 20
493.63900000000001
 30
0.0
 11
16.6907
 21
493.45800000000003
 31
0.0
  0
LINE
  8
default
 10
16.6907
 20
493.45800000000003
 30
0.0
 11
18.879300000000001
 21
492.95600000000002
 31
0.0
  0
LINE
  8
default
 10
18.879300000000001
 20
492.95600000000002
 30
0.0
 11
21.337599999999998
 21
491.911
 31
0.0
  0
LINE
  8
default
 10
21.337599999999998
 20
491.911
 30
0.0
 11
22.5929
 21
491.11399999999998
 31
0.0
  0
LINE
  8
default
 10
22.5929
 20
491.11399999999998
 30
0.0
 11
23.825600000000001
 21
490.09899999999999
 31
0.0
  0
LINE
  8
default
 10
10.074999999999999
 20
480.34199999999998
 30
0.0
 11
10.193199999999999
 21
479.43299999999999
 31
0.0
  0
LINE
  8
default
 10
10.193199999999999
 20
479.43299999999999
 30
0.0
 11
10.622299999999999
 21
478.58499999999998
 31
0.0
  0
LINE
  8
default
 10
10.622299999999999
 20
478.58499999999998
 30
0.0
 11
11.548299999999999
 21
477.733
 31
0.0
  0
LINE
  8
default
 10
11.548299999999999
 20
477.733
 30
0.0
 11
14.5847
 21
475.44600000000003
 31
0.0
  0
LINE
  8
default
 10
14.5847
 20
475.44600000000003
 30
0.0
 11
16.3841
 21
473.94999999999999
 31
0.0
  0
LINE
  8
default
 10
16.3841
 20
473.94999999999999
 30
0.0
 11
16.881900000000002
 21
472.99400000000003
 31
0.0
  0
LINE
  8
default
 10
16.881900000000002
 20
472.99400000000003
 30
0.0
 11
17.1845
 21
471.90699999999998
 31
0.0
  0
LINE
  8
default
 10
17.1845
 20
471.90699999999998
 30
0.0
 11
17.238800000000001
 21
470.50900000000001
 31
0.0
  0
LINE
  8
default
 10
17.238800000000001
 20
470.50900000000001
 30
0.0
 11
17.042200000000001
 21
469.21199999999999
 31
0.0
  0
LINE
  8
default
 10
17.042200000000001
 20
469.21199999999999
 30
0.0
 11
16.7151
 21
468.26600000000002
 31
0.0
  0
LINE
  8
default
 10
16.7151
 20
468.26600000000002
 30
0.0
 11
16.229800000000001
 21
467.5
 31
0.0
  0
LINE
  8
default
 10
16.229800000000001
 20
467.5
 30
0.0
 11
15.558400000000001
 21
466.74400000000003
 31
0.0
  0
LINE
  8
default
 10
15.558400000000001
 20
466.74400000000003
 30
0.0
 11
14.542899999999999
 21
466.02300000000002
 31
0.0
  0
LINE
  8
default
 10
14.542899999999999
 20
466.02300000000002
 30
0.0
 11
13.4756
 21
465.65199999999999
 31
0.0
  0
LINE
  8
default
 10
13.4756
 20
465.65199999999999
 30
0.0
 11
12.2905
 21
465.49599999999998
 31
0.0
  0
LINE
  8
layer16
 10
0.26458700000000002
 20
461.53199999999998
 30
0.0
 11
0.26461000000000001
 21
458.86599999999999
 31
0.0
  0
LINE
  8
default
 10
0.26458700000000002
 20
461.53199999999998
 30
0.0
 11
21.113900000000001
 21
461.53199999999998
 31
0.0
  0
LINE
  8
default
 10
21.113900000000001
 20
461.53199999999998
 30
0.0
 11
22.755500000000001
 21
461.08499999999998
 31
0.0
  0
LINE
  8
default
 10
22.755500000000001
 20
461.08499999999998
 30
0.0
 11
24.291599999999999
 21
460.34500000000003
 31
0.0
  0
LINE
  8
default
 10
24.291599999999999
 20
460.34500000000003
 30
0.0
 11
25.8461
 21
459.09699999999998
 31
0.0
  0
LINE
  8
default
 10
25.8461
 20
459.09699999999998
 30
0.0
 11
27.550799999999999
 21
457.07400000000001
 31
0.0
  0
LINE
  8
default
 10
27.550799999999999
 20
457.07400000000001
 30
0.0
 11
29.4175
 21
454.286
 31
0.0
  0
LINE
  8
default
 10
29.4175
 20
454.286
 30
0.0
 11
30.247699999999998
 21
452.69400000000002
 31
0.0
  0
LINE
  8
default
 10
30.247699999999998
 20
452.69400000000002
 30
0.0
 11
30.921900000000001
 21
451.01999999999998
 31
0.0
  0
LINE
  8
default
 10
30.921900000000001
 20
451.01999999999998
 30
0.0
 11
31.374500000000001
 21
449.29899999999998
 31
0.0
  0
LINE
  8
default
 10
31.374500000000001
 20
449.29899999999998
 30
0.0
 11
31.539899999999999
 21
447.56700000000001
 31
0.0
  0
LINE
  8
default
 10
31.539899999999999
 20
447.56700000000001
 30
0.0
 11
31.724699999999999
 21
442.46800000000002
 31
0.0
  0
LINE
  8
default
 10
31.724699999999999
 20
442.46800000000002
 30
0.0
 11
32.210599999999999
 21
435.471
 31
0.0
  0
LINE
  8
default
 10
32.210599999999999
 20
435.471
 30
0.0
 11
32.895000000000003
 21
428.68000000000001
 31
0.0
  0
LINE
  8
default
 10
32.895000000000003
 20
428.68000000000001
 30
0.0
 11
33.279499999999999
 21
426.01799999999997
 31
0.0
  0
LINE
  8
default
 10
33.279499999999999
 20
426.01799999999997
 30
0.0
 11
33.675199999999997
 21
424.19600000000003
 31
0.0
  0
LINE
  8
default
 10
33.675199999999997
 20
424.19600000000003
 30
0.0
 11
34.246899999999997
 21
421.685
 31
0.0
  0
LINE
  8
default
 10
34.246899999999997
 20
421.685
 30
0.0
 11
34.469900000000003
 21
419.37900000000002
 31
0.0
  0
LINE
  8
default
 10
34.469900000000003
 20
419.37900000000002
 30
0.0
 11
34.442300000000003
 21
415.18799999999999
 31
0.0
  0
LINE
  8
default
 10
34.442300000000003
 20
415.18799999999999
 30
0.0
 11
34.557499999999997
 21
410.72199999999998
 31
0.0
  0
LINE
  8
default
 10
34.557499999999997
 20
410.72199999999998
 30
0.0
 11
34.607999999999997
 21
408.25999999999999
 31
0.0
  0
LINE
  8
default
 10
34.607999999999997
 20
408.25999999999999
 30
0.0
 11
34.5321
 21
405.75099999999998
 31
0.0
  0
LINE
  8
layer488
 10
34.306100000000001
 20
402.40800000000002
 30
0.0
 11
31.1081
 21
402.40800000000002
 31
0.0
  0
LINE
  8
default
 10
34.5321
 20
405.75099999999998
 30
0.0
 11
34.306100000000001
 21
402.40800000000002
 31
0.0
  0
LINE
  8
layer617
 10
31.1081
 20
402.40800000000002
 30
0.0
 11
30.4712
 21
403.274
 31
0.0
  0
LINE
  8
layer618
 10
30.4712
 20
403.274
 30
0.0
 11
29.932700000000001
 21
404.38799999999998
 31
0.0
  0
LINE
  8
layer619
 10
29.932700000000001
 20
404.38799999999998
 30
0.0
 11
29.119299999999999
 21
407.19099999999997
 31
0.0
  0
LINE
  8
layer620
 10
29.119299999999999
 20
407.19099999999997
 30
0.0
 11
28.604800000000001
 21
410.483
 31
0.0
  0
LINE
  8
layer621
 10
28.604800000000001
 20
410.483
 30
0.0
 11
28.325700000000001
 21
413.928
 31
0.0
  0
LINE
  8
layer622
 10
28.325700000000001
 20
413.928
 30
0.0
 11
28.220800000000001
 21
419.93599999999998
 31
0.0
  0
LINE
  8
layer623
 10
28.220800000000001
 20
419.93599999999998
 30
0.0
 11
28.298400000000001
 21
422.53500000000003
 31
0.0
  0
LINE
  8
layer624
 10
28.298400000000001
 20
422.53500000000003
 30
0.0
 11
28.298400000000001
 21
448.71699999999998
 31
0.0
  0
LINE
  8
layer625
 10
28.298400000000001
 20
448.71699999999998
 30
0.0
 11
27.904199999999999
 21
450.166
 31
0.0
  0
LINE
  8
layer626
 10
27.904199999999999
 20
450.166
 30
0.0
 11
26.683299999999999
 21
453.40499999999997
 31
0.0
  0
LINE
  8
layer627
 10
26.683299999999999
 20
453.40499999999997
 30
0.0
 11
25.744900000000001
 21
455.17599999999999
 31
0.0
  0
LINE
  8
layer628
 10
25.744900000000001
 20
455.17599999999999
 30
0.0
 11
24.578299999999999
 21
456.76999999999998
 31
0.0
  0
LINE
  8
layer629
 10
24.578299999999999
 20
456.76999999999998
 30
0.0
 11
23.176300000000001
 21
457.98000000000002
 31
0.0
  0
LINE
  8
layer630
 10
23.176300000000001
 20
457.98000000000002
 30
0.0
 11
22.384699999999999
 21
458.375
 31
0.0
  0
LINE
  8
layer631
 10
22.384699999999999
 20
458.375
 30
0.0
 11
21.531600000000001
 21
458.59699999999998
 31
0.0
  0
LINE
  8
layer632
 10
21.531600000000001
 20
458.59699999999998
 30
0.0
 11
16.219200000000001
 21
458.923
 31
0.0
  0
LINE
  8
layer633
 10
16.219200000000001
 20
458.923
 30
0.0
 11
9.1297599999999992
 21
458.98399999999998
 31
0.0
  0
LINE
  8
layer16
 10
0.26461000000000001
 20
458.86599999999999
 30
0.0
 11
0.26454
 21
450.12
 31
0.0
  0
LINE
  8
layer634
 10
9.1297599999999992
 20
458.98399999999998
 30
0.0
 11
0.26461000000000001
 21
458.86599999999999
 31
0.0
  0
LINE
  8
layer635
 10
33.174700000000001
 20
390.37599999999998
 30
0.0
 11
30.705400000000001
 21
390.79399999999998
 31
0.0
  0
LINE
  8
layer636
 10
30.705400000000001
 20
390.79399999999998
 30
0.0
 11
28.174299999999999
 21
391.43000000000001
 31
0.0
  0
LINE
  8
layer637
 10
28.174299999999999
 20
391.43000000000001
 30
0.0
 11
25.2728
 21
392.45400000000001
 31
0.0
  0
LINE
  8
layer638
 10
25.2728
 20
392.45400000000001
 30
0.0
 11
22.371400000000001
 21
393.94
 31
0.0
  0
LINE
  8
layer639
 10
22.371400000000001
 20
393.94
 30
0.0
 11
21.0364
 21
394.88099999999997
 31
0.0
  0
LINE
  8
layer640
 10
21.0364
 20
394.88099999999997
 30
0.0
 11
19.840299999999999
 21
395.96600000000001
 31
0.0
  0
LINE
  8
layer641
 10
19.840299999999999
 20
395.96600000000001
 30
0.0
 11
18.8294
 21
397.20600000000002
 31
0.0
  0
LINE
  8
layer642
 10
18.8294
 20
397.20600000000002
 30
0.0
 11
18.0501
 21
398.608
 31
0.0
  0
LINE
  8
layer643
 10
18.0501
 20
398.608
 30
0.0
 11
17.641100000000002
 21
399.79000000000002
 31
0.0
  0
LINE
  8
layer644
 10
17.548500000000001
 20
400.18400000000003
 30
0.0
 11
17.370999999999999
 21
401.94200000000001
 31
0.0
  0
LINE
  8
layer645
 10
17.370999999999999
 20
401.94200000000001
 30
0.0
 11
17.370999999999999
 21
440.07499999999999
 31
0.0
  0
LINE
  8
layer646
 10
17.370999999999999
 20
440.07499999999999
 30
0.0
 11
17.2455
 21
441.40699999999998
 31
0.0
  0
LINE
  8
layer647
 10
17.2455
 20
441.40699999999998
 30
0.0
 11
16.649100000000001
 21
444.41199999999998
 31
0.0
  0
LINE
  8
layer648
 10
16.649100000000001
 20
444.41199999999998
 30
0.0
 11
16.071000000000002
 21
446.077
 31
0.0
  0
LINE
  8
layer649
 10
16.071000000000002
 20
446.077
 30
0.0
 11
15.2514
 21
447.60300000000001
 31
0.0
  0
LINE
  8
layer650
 10
15.2514
 20
447.60300000000001
 30
0.0
 11
14.148899999999999
 21
448.803
 31
0.0
  0
LINE
  8
layer651
 10
14.148899999999999
 20
448.803
 30
0.0
 11
13.4787
 21
449.22300000000001
 31
0.0
  0
LINE
  8
layer652
 10
13.4787
 20
449.22300000000001
 30
0.0
 11
12.722300000000001
 21
449.49200000000002
 31
0.0
  0
LINE
  8
layer653
 10
12.722300000000001
 20
449.49200000000002
 30
0.0
 11
10.7896
 21
449.84300000000002
 31
0.0
  0
LINE
  8
layer654
 10
10.7896
 20
449.84300000000002
 30
0.0
 11
8.72241
 21
450.06599999999997
 31
0.0
  0
LINE
  8
layer655
 10
8.72241
 20
450.06599999999997
 30
0.0
 11
4.6681900000000001
 21
450.22899999999998
 31
0.0
  0
LINE
  8
layer16
 10
0.26454
 20
450.12
 30
0.0
 11
0.26458700000000002
 21
446.22899999999998
 31
0.0
  0
LINE
  8
layer656
 10
4.6681900000000001
 20
450.22899999999998
 30
0.0
 11
0.26454
 21
450.12
 31
0.0
  0
LINE
  8
layer657
 10
8.28688
 20
411.24200000000002
 30
0.0
 11
8.28688
 21
434.29300000000001
 31
0.0
  0
LINE
  8
layer658
 10
8.28688
 20
434.29300000000001
 30
0.0
 11
11.4437
 21
446.22899999999998
 31
0.0
  0
LINE
  8
layer16
 10
0.26458700000000002
 20
446.22899999999998
 30
0.0
 11
0.26458700000000002
 21
411.24200000000002
 31
0.0
  0
LINE
  8
layer659
 10
11.4437
 20
446.22899999999998
 30
0.0
 11
0.26458700000000002
 21
446.22899999999998
 31
0.0
  0
LINE
  8
layer643
 10
17.641100000000002
 20
399.79000000000002
 30
0.0
 11
17.548500000000001
 21
400.18400000000003
 31
0.0
  0
LINE
  8
layer660
 10
17.641100000000002
 20
399.79000000000002
 30
0.0
 11
11.94115
 21
399.79000000000002
 31
0.0
  0
LINE
  8
layer661
 10
8.2868300000000001
 20
361.81200000000001
 30
0.0
 11
8.2868300000000001
 21
388.33699999999999
 31
0.0
  0
LINE
  8
layer16
 10
0.26458700000000002
 20
411.24200000000002
 30
0.0
 11
0.26458700000000002
 21
388.33699999999999
 31
0.0
  0
LINE
  8
layer662
 10
0.26458700000000002
 20
411.24200000000002
 30
0.0
 11
8.28688
 21
411.24200000000002
 31
0.0
  0
LINE
  8
layer662
 10
8.28688
 20
411.24200000000002
 30
0.0
 11
11.875500000000001
 21
411.24200000000002
 31
0.0
  0
LINE
  8
layer660
 10
11.94115
 20
399.79000000000002
 30
0.0
 11
11.875500000000001
 21
399.79000000000002
 31
0.0
  0
LINE
  8
layer663
 10
11.875500000000001
 20
411.24200000000002
 30
0.0
 11
11.94115
 21
399.79000000000002
 31
0.0
  0
LINE
  8
layer663
 10
11.94115
 20
399.79000000000002
 30
0.0
 11
12.0068
 21
388.33800000000002
 31
0.0
  0
LINE
  8
layer16
 10
0.26458700000000002
 20
388.33699999999999
 30
0.0
 11
0.26458700000000002
 21
348.40699999999998
 31
0.0
  0
LINE
  8
layer664
 10
12.0068
 20
388.33800000000002
 30
0.0
 11
8.2868300000000001
 21
388.33699999999999
 31
0.0
  0
LINE
  8
layer664
 10
8.2868300000000001
 20
388.33699999999999
 30
0.0
 11
0.26458700000000002
 21
388.33699999999999
 31
0.0
  0
LINE
  8
default
 10
8.2868300000000001
 20
361.81200000000001
 30
0.0
 11
10.622299999999999
 21
361.49599999999998
 31
0.0
  0
LINE
  8
default
 10
8.2868300000000001
 20
244.72300000000001
 30
0.0
 11
10.622299999999999
 21
244.40700000000001
 31
0.0
  0
ENDSEC
  0
EOF
